<svg width="384" height="241" viewBox="0 0 384 241" fill="none" xmlns="http://www.w3.org/2000/svg">
<g clip-path="url(#clip0_8_17)">
<mask id="mask0_8_17" style="mask-type:luminance" maskUnits="userSpaceOnUse" x="0" y="0" width="384" height="241">
<path d="M384 0H0V241H384V0Z" fill="white"/>
</mask>
<g mask="url(#mask0_8_17)">
<path d="M47.3308 53.7797C18.5755 82.1036 0 119.151 0 148.164V238.787C0 239.723 0.775774 240.489 1.72395 240.489C2.67211 240.489 3.44789 239.723 3.44789 238.787V148.164C3.44789 120.011 21.6269 83.8993 49.7616 56.1798C84.3095 22.1451 130.356 3.40431 179.411 3.40431C228.466 3.40431 275.108 21.3195 309.62 53.8391C338.505 81.0569 356.443 115.985 356.443 145.007L356.588 239.298C356.588 240.234 357.364 241 358.312 241C359.26 241 360.036 240.234 360.036 239.298L359.891 145.007C359.891 115.091 341.54 79.2183 311.999 51.3796C276.84 18.2471 229.75 0 179.411 0C129.072 0 82.5251 19.0982 47.3308 53.7797Z" fill="#DD052B"/>
<path d="M42.4178 238.2H21.5408V236.762C25.8076 236.413 27.2125 236.294 27.2125 231.442V200.999C23.1182 201.229 17.093 201.519 15.9207 210.761H14.2227L14.3951 199.152H49.4947L49.6066 210.761H47.9085C46.7363 201.519 40.711 201.229 36.6771 200.999V231.442C36.6771 236.353 38.0821 236.472 42.4092 236.762V238.2" fill="#0C2C65"/>
<path d="M73.1469 198.284C61.8551 198.284 52.4337 206.199 52.4337 218.787C52.4337 231.374 61.157 239.289 73.1469 239.289C85.1371 239.289 93.8601 230.915 93.8601 218.787C93.8601 206.659 84.4389 198.284 73.1469 198.284ZM73.1469 200.182C81.3358 200.182 83.4993 210.353 83.4993 218.787C83.4993 223.808 83.1459 237.383 73.1469 237.383C63.1481 237.383 62.7947 223.808 62.7947 218.787C62.7947 210.353 64.9583 200.182 73.1469 200.182Z" fill="#0C2C65"/>
<path d="M140.071 223.068C136.442 223.468 135.037 223.638 135.037 228.379V235.715C132.227 237.681 124.331 239.298 119.237 239.298C104.618 239.298 98.058 229.076 98.058 219.025C98.058 207.646 106.135 198.293 118.771 198.293C124.029 198.293 128.537 201.118 130.063 201.118C131.589 201.118 132.166 199.91 132.753 198.463H134.33V211.978H132.873C130.83 206.948 125.917 200.191 119.245 200.191C110.764 200.191 108.419 208.974 108.419 218.914C108.419 223.017 108.772 237.4 119.831 237.4C124.977 237.4 125.917 235.672 125.917 233.178V227.119C125.917 223.417 124.038 223.297 120.004 223.076V221.629H140.071V223.076" fill="#0C2C65"/>
<path d="M142.355 199.152H176.11V210.761H174.653C173.308 202.557 169.154 201.11 161.258 201.11C158.043 201.11 156.991 201.34 156.991 203.825V217.221C162.603 217.281 165.585 215.774 166.464 208.617H167.99V228.14H166.464C165.766 220.915 162.775 219.187 156.991 219.187V233.17C156.991 235.715 158.103 236.413 161.904 236.413C167.636 236.413 173.61 234.906 177.291 226.191H178.928L176.584 238.2H142.363V236.762C145.699 236.413 147.509 236.243 147.509 232.66V204.702C147.509 200.88 145.053 200.77 142.363 200.599V199.161" fill="#0C2C65"/>
<path d="M210.45 238.2H189.565V236.762C193.832 236.413 195.245 236.294 195.245 231.442V200.999C191.151 201.229 185.126 201.519 183.953 210.761H182.255L182.436 199.152H217.536L217.657 210.761H215.959C214.786 201.519 208.77 201.229 204.727 200.999V231.442C204.727 236.353 206.132 236.472 210.459 236.762V238.2" fill="#0C2C65"/>
<path d="M263.858 238.2H243.964V236.762C247.067 236.413 249.231 236.183 249.231 232.66V219.374H235.137V232.66C235.137 236.174 237.301 236.413 240.396 236.762V238.2H220.682V236.762C223.785 236.362 225.656 236.072 225.656 232.66V204.702C225.656 200.94 223.139 200.829 220.682 200.599V199.161H240.396V200.599C237.818 200.778 235.137 200.889 235.137 204.702V216.659H249.231V204.702C249.231 200.88 246.541 200.77 243.964 200.599V199.161H263.858V200.599C261.342 200.778 258.713 200.948 258.713 204.702V232.66C258.713 236.124 260.755 236.353 263.858 236.762V238.2Z" fill="#0C2C65"/>
<path d="M265.901 199.152H299.657V210.761H298.191C296.845 202.557 292.691 201.11 284.788 201.11C281.571 201.11 280.521 201.34 280.521 203.825V217.221C286.142 217.281 289.114 215.774 289.992 208.617H291.52V228.14H289.992C289.294 220.915 286.303 219.187 280.521 219.187V233.17C280.521 235.715 281.622 236.413 285.425 236.413C291.158 236.413 297.13 234.906 300.82 226.191H302.458L300.113 238.2H265.893V236.762C269.23 236.413 271.04 236.243 271.04 232.66V204.702C271.04 200.88 268.582 200.77 265.893 200.599V199.161" fill="#0C2C65"/>
<path d="M345.815 236.762C345.117 236.762 344.239 236.702 343.42 235.664L331.661 219.195C334.816 218.217 340.85 216.43 340.85 209.323C340.85 199.621 328.446 199.161 324.359 199.161H305.516V200.599C308.854 200.829 310.672 200.948 310.672 205.919V231.451C310.672 236.132 309.499 236.302 305.516 236.77V238.208H325.299V236.77C321.438 236.251 320.154 236.081 320.154 231.451V220.123H321.73L333.841 238.208H345.831V236.77M320.154 203.553C320.439 201.765 320.559 201.127 323.774 201.127C328.454 201.127 330.85 203.612 330.85 209.442C330.85 216.957 327.807 218.225 320.146 218.285V203.544L320.154 203.553Z" fill="#0C2C65"/>
<path d="M376.355 198.284C377.612 198.284 378.836 198.599 380.026 199.238C381.215 199.867 382.147 200.778 382.818 201.961C383.493 203.144 383.828 204.37 383.828 205.655C383.828 206.94 383.501 208.148 382.837 209.323C382.182 210.489 381.258 211.4 380.069 212.046C378.879 212.693 377.647 213.016 376.355 213.016C375.061 213.016 373.828 212.693 372.647 212.046C371.468 211.4 370.544 210.489 369.881 209.323C369.225 208.157 368.89 206.931 368.89 205.655C368.89 204.378 369.225 203.144 369.899 201.961C370.571 200.778 371.503 199.876 372.692 199.238C373.882 198.608 375.104 198.284 376.355 198.284ZM376.355 198.923C375.208 198.923 374.097 199.212 373.001 199.791C371.916 200.37 371.062 201.204 370.45 202.276C369.838 203.348 369.537 204.472 369.537 205.646C369.537 206.821 369.838 207.918 370.434 208.982C371.035 210.046 371.873 210.88 372.958 211.476C374.035 212.072 375.173 212.37 376.355 212.37C377.536 212.37 378.664 212.072 379.749 211.476C380.837 210.88 381.683 210.055 382.276 208.982C382.88 207.918 383.173 206.804 383.173 205.646C383.173 204.489 382.87 203.357 382.26 202.276C381.648 201.204 380.802 200.37 379.706 199.791C378.621 199.212 377.502 198.923 376.347 198.923H376.355ZM372.233 201.119H376.304C377.319 201.119 378.095 201.348 378.629 201.799C379.164 202.25 379.432 202.804 379.432 203.442C379.432 203.97 379.25 204.429 378.887 204.829C378.527 205.229 377.923 205.536 377.077 205.748L379.293 208.829C379.561 209.195 379.803 209.45 380.01 209.587C380.147 209.672 380.329 209.723 380.568 209.74V210.089H378.629L375.528 205.884H374.733V209.085C374.776 209.314 374.873 209.476 375.036 209.578C375.19 209.68 375.509 209.731 375.976 209.731V210.08H372.123V209.731C372.459 209.731 372.692 209.689 372.837 209.612C372.974 209.536 373.079 209.416 373.138 209.263C373.192 209.153 373.216 208.829 373.216 208.302V202.872C373.216 202.361 373.208 202.055 373.184 201.97C373.13 201.808 373.044 201.689 372.915 201.603C372.786 201.519 372.561 201.476 372.244 201.476V201.101L372.233 201.119ZM374.725 205.442C375.552 205.442 376.156 205.365 376.543 205.204C376.924 205.042 377.217 204.821 377.424 204.531C377.63 204.242 377.724 203.918 377.724 203.553C377.724 202.991 377.526 202.523 377.131 202.14C376.734 201.757 376.226 201.569 375.606 201.569C375.337 201.569 375.045 201.629 374.717 201.74V205.442H374.725Z" fill="#0C2C65"/>
<path d="M372.614 199.084C371.398 199.731 370.434 200.668 369.752 201.868C369.07 203.068 368.726 204.336 368.726 205.638C368.726 206.94 369.062 208.191 369.736 209.383C370.407 210.574 371.363 211.51 372.561 212.174C373.761 212.83 375.036 213.17 376.355 213.17C377.673 213.17 378.949 212.838 380.155 212.174C381.363 211.519 382.319 210.574 382.99 209.383C383.664 208.191 384 206.931 384 205.638C384 204.344 383.656 203.068 382.974 201.868C382.292 200.668 381.328 199.731 380.112 199.084C378.898 198.438 377.639 198.114 376.355 198.114C375.069 198.114 373.82 198.438 372.614 199.084ZM372.735 211.885C371.588 211.255 370.684 210.361 370.036 209.23C369.389 208.089 369.07 206.889 369.07 205.646C369.07 204.404 369.397 203.187 370.053 202.038C370.7 200.889 371.621 200.004 372.778 199.383C373.941 198.77 375.147 198.455 376.363 198.455C377.579 198.455 378.793 198.77 379.959 199.383C381.113 199.995 382.034 200.889 382.682 202.038C383.337 203.187 383.664 204.404 383.664 205.646C383.664 206.889 383.337 208.089 382.698 209.23C382.061 210.37 381.146 211.264 380.002 211.885C378.844 212.515 377.622 212.838 376.371 212.838C375.122 212.838 373.898 212.523 372.743 211.885H372.735Z" fill="#0C2C65"/>
<path d="M372.923 199.646C371.811 200.242 370.933 201.093 370.302 202.199C369.682 203.297 369.362 204.455 369.362 205.646C369.362 206.838 369.674 207.987 370.286 209.067C370.898 210.157 371.768 211.016 372.872 211.621C373.976 212.225 375.146 212.531 376.347 212.531C377.544 212.531 378.715 212.225 379.827 211.621C380.939 211.016 381.811 210.157 382.424 209.067C383.033 207.978 383.345 206.829 383.345 205.646C383.345 204.463 383.025 203.297 382.405 202.199C381.777 201.101 380.896 200.242 379.784 199.646C378.672 199.05 377.518 198.752 376.347 198.752C375.173 198.752 374.019 199.05 372.915 199.646H372.923ZM373.044 211.331C371.994 210.753 371.175 209.944 370.587 208.906C370.001 207.876 369.709 206.778 369.709 205.646C369.709 204.514 370.009 203.408 370.606 202.361C371.199 201.314 372.037 200.506 373.087 199.944C374.148 199.382 375.243 199.093 376.355 199.093C377.467 199.093 378.578 199.382 379.631 199.944C380.681 200.506 381.519 201.323 382.112 202.361C382.706 203.408 383.009 204.514 383.009 205.646C383.009 206.778 382.716 207.868 382.128 208.906C381.551 209.936 380.716 210.753 379.663 211.331C378.613 211.91 377.491 212.199 376.355 212.199C375.216 212.199 374.097 211.91 373.044 211.331Z" fill="#0C2C65"/>
<path d="M372.061 200.948V201.663H372.233C372.579 201.663 372.735 201.714 372.802 201.765L373.001 202.038C373.001 202.106 373.028 202.889 373.028 202.889V208.319C373.028 209.025 372.985 209.187 372.966 209.212L372.735 209.476C372.657 209.519 372.485 209.57 372.104 209.57H371.932V210.259H376.129V209.57H375.957C375.388 209.57 375.181 209.493 375.114 209.442C374.993 209.366 374.924 209.238 374.889 209.059C374.889 209.059 374.889 206.361 374.889 206.055H375.423C375.528 206.191 378.527 210.259 378.527 210.259H380.724V209.612L380.568 209.57L380.087 209.442C379.897 209.314 379.674 209.076 379.414 208.727C379.414 208.727 377.561 206.14 377.338 205.825C378.079 205.604 378.656 205.314 379 204.94C379.397 204.514 379.596 204.004 379.596 203.442C379.596 202.753 379.303 202.157 378.734 201.672C378.173 201.195 377.346 200.948 376.293 200.948H372.053H372.061ZM376.304 201.289C377.276 201.289 378.017 201.502 378.517 201.927C379.019 202.353 379.26 202.846 379.26 203.442C379.26 203.927 379.097 204.344 378.758 204.719C378.423 205.093 377.837 205.383 377.034 205.587L376.793 205.646L379.148 208.931C379.432 209.323 379.682 209.578 379.905 209.732C379.905 209.732 380.198 209.817 380.388 209.868V209.919H378.715C378.613 209.782 375.614 205.714 375.614 205.714H374.561V209.085C374.612 209.391 374.744 209.595 374.94 209.723C375.104 209.834 375.396 209.885 375.802 209.893V209.91H372.295V209.876C372.544 209.859 372.786 209.842 372.923 209.766L373.302 209.332C373.337 209.246 373.39 209.042 373.39 208.302V202.872L373.355 201.927L373.02 201.459C372.899 201.374 372.665 201.357 372.424 201.34V201.272H376.32L376.304 201.289Z" fill="#0C2C65"/>
<path d="M374.526 201.604L374.553 201.74V205.612H374.725C375.587 205.612 376.199 205.527 376.613 205.357C377.026 205.187 377.346 204.94 377.569 204.625C377.794 204.31 377.907 203.944 377.907 203.544C377.907 202.94 377.69 202.421 377.26 202.012C376.828 201.604 376.277 201.391 375.622 201.391L374.534 201.595L374.526 201.604ZM375.614 201.74C376.191 201.74 376.648 201.91 377.018 202.259C377.381 202.608 377.561 203.034 377.561 203.544C377.561 203.876 377.467 204.174 377.284 204.429C377.104 204.685 376.828 204.889 376.484 205.042C376.156 205.178 375.614 205.246 374.905 205.255V201.867C375.079 201.833 375.622 201.731 375.622 201.731L375.614 201.74Z" fill="#0C2C65"/>
<path d="M331.832 138.326C332.998 139.475 335.031 138.905 336.204 138.326C335.978 137.917 335.713 137.637 335.428 137.432L336.048 135.968C338.342 136.922 340.713 137.645 343.186 138.036C344.641 140.343 347.555 138.326 349.59 139.194C350.176 140.343 348.72 142.632 350.46 143.211V144.079C342.367 144.377 334.04 144.36 325.723 144.369V142.632C327.471 140.913 330.962 142.93 332.713 140.913C331.808 140.198 330.568 139.713 329.343 139.16L330.033 137.628C330.627 137.926 331.212 138.054 331.832 137.747V138.326Z" fill="#0C2C65"/>
<path d="M313.792 139.194C312.619 138.615 311.456 136.887 310.001 136.887C308.551 134.589 305.637 135.449 304.474 133.44C297.485 130.564 292.251 122.521 286.424 117.917L286.719 119.934C289.622 124.819 295.156 128.555 298.94 133.151C303.604 135.738 308.551 139.474 313.792 139.194ZM294.571 131.432C291.08 126.538 284.684 123.67 284.098 117.627C282.933 117.057 283.228 115.908 282.64 114.759L283.201 113.559L285.838 114.759C293.124 120.793 298.355 128.266 306.803 132.581C310.586 134.019 314.37 138.325 319.023 139.194C320.774 138.325 322.232 140.053 323.973 140.623C323.973 141.491 324.851 142.632 325.723 142.632V144.368C318.18 144.368 310.645 144.377 303.312 144.649L287.589 144.36C286.131 143.789 287.882 143.211 287.589 142.351L288.752 141.781C295.449 142.351 302.724 142.062 310.001 142.062C310.586 141.781 310.586 141.202 310.586 140.913C307.38 139.764 303.889 138.615 301.268 136.598C298.355 136.317 296.907 133.151 294.571 131.432Z" fill="#0C2C65"/>
<path d="M284.684 147.237C284.383 150.973 285.261 155.288 284.383 158.735H282.055L283.806 161.892C281.477 163.331 279.434 162.471 276.813 163.62C275.358 162.76 272.452 163.05 273.91 160.173L279.141 155.288C279.434 153.56 277.694 153.849 276.528 153.56C274.488 154.709 273.615 157.586 272.745 159.594C273.615 161.322 271.289 161.611 270.701 162.471C267.505 164.199 263.721 163.909 259.936 163.62C258.48 161.611 260.807 159.313 259.936 157.016C261.686 155.577 260.23 153.849 259.936 152.122C261.1 149.534 258.195 145.509 263.134 146.377C266.625 147.237 271.582 146.377 275.358 146.947C278.271 146.666 282.347 146.666 284.684 147.237Z" fill="#0C2C65"/>
<path d="M285.838 100.674L282.64 97.2272C282.605 97.7035 282.597 98.1802 282.616 98.64L281.477 98.6568C281.236 97.9336 281.4 95.8058 280.261 95.8058L280.572 94.393C281.754 94.6399 282.831 95.278 283.51 96.359C286.719 95.21 286.424 98.6568 288.459 99.525L293.994 104.98C296.319 109.006 300.398 111.304 304.182 113.321C309.716 119.355 315.533 125.108 323.387 128.555C327.429 131.406 331.593 134.121 336.048 135.968L335.428 137.432C333.876 136.343 331.61 137.679 330.385 135.738C327.472 136.028 326.593 132.002 324.558 131.432C324.558 132.002 323.973 132.283 323.688 132.002C321.644 130.853 319.319 129.704 317.576 128.266C316.121 126.538 314.077 125.108 312.042 124.819C310.001 123.091 308.258 121.653 307.095 119.355C305.052 118.785 303.019 117.057 301.569 115.04L298.94 112.742H298.355L298.07 113.602L304.182 120.215C305.933 121.364 306.803 123.091 308.835 123.67C309.128 125.389 311.172 126.828 312.619 127.406C314.37 129.704 317.576 131.432 320.482 132.581C321.937 134.589 324.558 135.168 326.593 136.028C327.904 136.028 328.973 137.092 330.033 137.628L329.343 139.16C328.591 138.828 327.842 138.479 327.179 138.036C324.558 137.466 322.232 136.028 319.612 134.879C310.294 129.415 303.312 122.521 296.319 114.759C293.709 109.874 288.459 105.559 285.838 100.674Z" fill="#0C2C65"/>
<path d="M278.564 73.0739C280.315 71.9334 279.434 68.7675 279.434 66.7589C279.141 66.1716 278.271 64.7417 277.401 65.6098C277.116 68.478 276.528 71.0653 278.564 73.0739ZM278.857 60.1461C279.434 56.699 277.986 52.384 279.727 49.5076C281.762 52.0948 279.727 56.699 281.477 59.5672C281.477 61.2949 280.9 63.3035 282.347 64.4611C282.055 66.1716 282.055 68.1888 282.933 69.6271V75.0911H280.597C278.003 75.6612 275.339 75.5251 272.78 75.3122L272.849 74.5293C272.994 74.5633 273.15 74.5547 273.322 74.5121C275.658 72.5038 274.203 68.1888 274.488 65.6098C274.78 64.4611 273.322 63.3035 272.452 64.1716L271.289 63.3035C272.452 63.014 272.452 59.8566 274.203 61.8652C274.488 63.014 275.658 63.5929 276.528 64.4611C279.141 64.7417 277.986 61.5843 278.857 60.1461Z" fill="#0C2C65"/>
<path d="M281.477 88.308L281.185 80.5548H280.597C279.434 80.8357 280.019 82.2739 279.727 83.1421C279.141 84.8612 280.019 86.8784 280.019 88.8867C280.597 88.8867 281.477 88.8867 281.477 88.308ZM274.203 88.0271C274.78 88.0271 275.357 87.4485 275.073 86.8784C274.487 85.1507 275.073 84.2911 274.487 82.5634C274.203 82.5634 273.615 82.5634 273.322 82.8526C273.322 84.5717 272.452 87.1676 274.203 88.0271ZM276.236 90.3252C274.78 90.3252 272.745 89.7463 271.867 91.474C270.419 89.4656 267.505 90.8953 265.47 90.0357C265.177 86.8784 265.47 83.1421 265.47 79.9761C269.254 78.2567 272.452 81.4144 275.658 79.4058C278.564 80.5548 280.597 76.8185 283.228 78.2567C283.228 79.4058 282.933 80.8357 283.228 81.9845C281.762 84.5717 284.968 90.0357 280.597 90.8953C278.856 90.3252 277.401 92.623 276.236 90.3252ZM270.997 83.7122C271.289 82.2739 269.254 82.2739 268.375 83.1421C268.375 84.8612 268.375 86.8784 269.538 87.7379C270.419 87.1676 271.582 85.4399 270.997 83.7122Z" fill="#0C2C65"/>
<path d="M277.694 100.964C276.813 99.8147 277.694 98.087 276.528 97.2274C275.943 96.6488 274.78 96.938 274.203 97.5083C272.745 98.6574 275.358 99.5252 273.91 100.674C273.322 101.823 273.615 103.542 275.073 104.411C275.658 105.56 276.528 104.691 277.116 103.832C276.528 102.683 278.271 102.113 277.694 100.964ZM267.504 103.832C268.375 104.121 270.124 104.691 270.124 103.262C269.539 101.245 271.582 94.0615 266.927 97.7975C266.625 99.8147 266.048 102.112 267.504 103.832ZM268.961 94.3507C271.289 96.0698 274.203 93.772 276.528 94.9211C277.761 94.3167 279.235 94.1041 280.573 94.3933L280.261 95.8061C280.038 95.8061 279.77 95.8827 279.434 96.0698C280.315 99.8147 279.434 103.542 279.727 107.287C280.019 107.857 280.9 107.568 281.185 107.568L281.477 98.6574L282.616 98.6402C282.726 102.078 283.994 105.176 283.226 108.726L281.185 109.585C280.959 109.585 280.736 109.611 280.511 109.611C275.237 109.806 270.221 108.981 265.47 108.436C264.014 107.568 266.048 106.419 265.47 105.27C264.591 102.113 264.014 97.7975 265.47 95.2103C266.927 95.2103 267.798 94.9211 268.961 94.3507Z" fill="#0C2C65"/>
<path d="M275.658 122.802C279.141 122.802 277.401 119.066 278.271 117.057C278.271 115.908 277.116 115.33 275.943 115.04C273.615 115.908 273.037 118.496 273.615 120.794C274.487 121.364 274.203 123.092 275.658 122.802ZM279.434 118.785L280.019 123.381C280.597 123.67 281.185 123.381 281.477 122.802L281.185 113.602L280.597 113.032C279.141 114.47 280.315 117.347 279.434 118.785ZM280.597 124.241C276.813 124.241 272.745 124.53 268.961 123.951C271.582 122.802 270.701 118.206 270.124 115.33C269.254 114.759 267.798 115.04 266.625 115.619C264.884 116.768 266.625 118.206 266.341 119.645C266.048 121.364 266.341 123.67 268.375 123.951C267.798 124.53 266.341 124.241 265.177 124.241C264.591 121.083 264.884 117.628 264.884 114.47C265.755 113.891 266.341 112.172 267.504 112.742C272.159 112.172 276.528 113.892 280.597 111.883C280.9 112.453 282.347 111.883 282.055 113.032L283.201 113.559L282.64 114.759L282.055 115.33L282.347 124.819C282.055 125.389 281.185 124.819 280.597 124.241Z" fill="#0C2C65"/>
<path d="M283.226 138.904C280.597 137.466 282.347 133.44 281.762 130.853H280.597C279.434 134.589 279.727 139.194 280.315 142.93C283.228 144.079 281.477 140.053 283.226 138.904ZM264.013 143.211C264.591 141.492 264.591 139.764 264.013 138.036L264.298 129.994C265.755 128.555 267.211 130.564 268.668 130.283C272.452 129.415 277.116 129.415 280.9 128.844C281.185 127.406 282.64 127.687 283.51 128.266C284.684 131.143 284.098 134.589 284.383 137.747L284.968 138.326C284.383 140.623 283.806 142.632 283.226 144.938C279.727 145.798 277.401 143.789 274.203 144.649L264.591 144.938C264.884 143.789 263.427 143.789 263.427 143.211H264.013ZM267.505 132.87C266.048 133.151 266.625 134.879 266.927 135.738C266.048 136.598 266.048 138.326 266.341 139.194C266.625 140.343 268.091 141.202 268.961 140.623C269.254 138.904 269.254 136.598 269.831 135.168C269.831 133.73 268.375 133.73 267.505 132.87ZM276.813 140.623C277.401 138.325 276.528 136.317 276.813 134.019C277.116 132.002 275.073 133.44 274.488 133.73C274.203 135.738 273.91 138.036 274.488 139.764C275.358 140.053 275.943 141.492 276.813 140.623Z" fill="#0C2C65"/>
<path d="M257.609 157.875C257.902 159.314 258.195 161.033 257.316 162.76C254.696 165.058 252.084 162.181 249.455 162.471C246.834 160.752 243.636 162.76 241.602 160.752C239.266 161.322 237.81 159.024 235.482 159.884C234.319 157.015 230.827 159.314 229.664 157.015C227.044 157.015 226.75 153.85 225.294 152.411C226.75 151.543 227.621 149.535 229.957 150.403C231.112 151.262 232.577 150.684 233.732 150.973C235.775 152.122 238.103 151.262 239.852 152.981C241.309 152.981 243.636 152.411 243.921 153.56C246.55 153.56 249.455 153.271 251.498 155.288C253.532 155.288 255.859 156.147 257.609 157.875Z" fill="#0C2C65"/>
<path d="M257.316 87.4479C256.73 86.2992 258.48 83.4224 255.859 83.7119C254.696 84.5715 255.566 87.1673 253.239 86.8778C252.946 87.7374 252.946 88.0269 253.239 88.6055C254.118 87.1673 256.73 88.6055 257.316 87.4479ZM250.041 88.6055C250.619 88.6055 250.619 87.7374 250.619 87.4479C249.455 86.2992 250.041 84.5715 250.041 82.8523C248.291 82.2734 246.55 81.9842 244.507 81.9842V80.5543H257.316C259.643 81.9842 259.066 85.7288 258.773 88.3078L257.609 89.4651C255.109 89.4651 252.48 89.712 249.981 89.5503L250.041 88.6055Z" fill="#0C2C65"/>
<path d="M269.539 72.2138C269.539 70.4861 269.831 68.7669 269.254 67.3287C270.124 66.1711 268.961 65.0306 268.091 64.4605C268.375 65.8905 267.211 67.0392 266.625 68.1883C267.798 69.3456 266.625 71.065 267.505 72.2138C268.375 72.2138 268.961 72.7927 269.539 72.2138ZM259.066 41.7452C258.773 40.5962 257.316 40.5962 256.73 41.1751C256.152 42.3239 256.73 43.7624 257.609 44.0516C258.773 44.0516 259.066 42.8943 259.066 41.7452ZM262.557 60.1456C262.557 62.4434 261.393 65.3201 261.971 68.1883C262.557 68.4777 263.721 68.1883 264.014 69.0564L266.048 65.6096C266.625 62.7328 265.755 59.8561 264.014 57.8478C263.134 58.4179 263.134 59.2774 262.557 60.1456ZM250.326 71.6351C248.576 69.916 250.912 66.4691 249.455 64.4605C250.619 63.0137 248.877 61.5838 247.714 61.0051C246.55 61.5838 245.671 62.1542 244.8 63.0137L243.464 62.7074C244.171 60.8434 245.455 59.2434 247.714 58.1284C249.17 57.8478 247.714 55.5497 248.877 54.3924C250.326 53.2433 249.748 50.6561 251.498 49.2178C252.368 46.6306 253.532 44.0516 253.532 41.1751C254.989 40.0261 257.023 36.8602 259.066 38.2984C260.807 36.8602 261.971 39.1579 262.557 40.307C262.557 42.3239 262.841 44.9112 263.134 47.2092C265.177 48.9284 262.841 52.6732 266.048 54.1115C267.211 57.5583 268.668 60.7157 271.289 63.3032L272.452 64.1711L271.582 72.7927C271.582 73.2777 272.004 74.3927 272.85 74.5287L272.78 75.3117C270.167 75.0905 267.677 74.801 265.47 75.0905C264.591 73.6523 264.884 71.6351 264.014 70.2054C262.264 71.065 264.014 73.6523 261.686 74.801C257.609 75.9501 252.084 75.0905 247.714 75.6692L247.128 74.9033C247.309 74.9033 247.498 74.8693 247.714 74.801C249.17 74.2224 250.041 73.3628 250.326 71.6351ZM251.205 55.5497C251.782 57.8478 247.998 58.4179 249.748 61.0051C254.696 63.0137 249.748 70.4861 254.989 72.7927C256.152 74.5118 257.316 71.6351 258.48 73.3628C259.643 73.6523 260.807 72.7927 261.1 71.9332C259.936 69.3456 260.23 65.8905 259.936 63.0137C259.643 61.2946 258.195 60.1456 258.48 58.1284C257.316 54.9625 253.532 54.9625 251.205 55.5497Z" fill="#0C2C65"/>
<path d="M241.016 143.211C241.887 143.211 243.344 143.5 244.223 142.351V136.887L245.671 133.441C245.671 132.445 244.843 132.275 244.042 132.258L244.111 129.875C245.36 130.104 246.576 130.7 247.998 129.994C250.041 128.266 252.368 131.143 254.696 129.704C257.023 130.853 259.936 126.828 261.686 130.283C261.1 133.151 260.807 136.598 261.686 139.475V144.649C256.73 146.088 251.498 144.36 246.834 145.509C244.972 145.645 242.93 145.475 240.921 145.39L241.016 143.211Z" fill="#0C2C65"/>
<path d="M236.068 147.237H256.73C257.023 147.815 257.023 148.964 257.902 149.245L257.316 154.139C257.609 154.42 257.902 154.42 258.195 154.709C252.946 152.701 248.291 151.841 243.05 150.113C240.43 149.824 237.525 150.402 235.189 148.386L236.068 147.237Z" fill="#0C2C65"/>
<path d="M238.68 76.8185C236.939 77.0994 234.905 77.3886 233.155 76.8185C231.991 75.9504 231.698 74.8013 232.862 73.6525C232.284 72.5035 232.284 71.6354 232.284 70.2054C233.155 69.9162 233.733 69.3459 233.439 68.4777C231.698 67.6182 233.439 65.8905 232.284 64.7417C234.318 61.5841 234.025 57.5586 234.905 53.8223C236.939 54.6818 234.612 58.4181 236.939 59.2777C235.482 61.2949 236.939 63.5927 237.525 65.3204C237.232 66.7586 237.232 68.7672 234.905 68.4777C234.318 69.9162 235.189 71.6354 235.189 73.3631C235.775 75.38 238.396 74.8013 240.137 74.8013C240.723 73.3631 241.887 72.5035 242.757 71.065C242.594 68.1205 242.525 65.1758 243.464 62.7077L244.8 63.014C244.223 66.1714 244.507 68.7672 244.507 72.214C245.274 73.2268 245.817 74.9036 247.127 74.9036L247.714 75.6695C245.093 77.0994 241.309 75.6695 238.68 76.8185Z" fill="#0C2C65"/>
<path d="M234.025 124.819C234.319 125.109 234.905 124.819 235.189 124.53C235.775 123.67 235.482 122.232 234.612 121.653C235.775 121.653 235.482 120.215 235.482 119.356C235.775 118.496 235.775 117.057 234.319 117.057C233.439 118.206 234.025 119.645 233.732 121.083C235.482 122.232 232.862 123.092 234.025 124.819ZM231.991 119.066L232.578 114.181C234.905 115.33 237.81 112.172 239.852 114.76C242.18 116.198 243.343 111.594 245.093 114.76C246.55 115.33 248.291 115.041 249.17 113.602C253.239 115.33 256.73 112.742 260.807 113.602L261.393 115.041C260.23 117.628 260.23 121.364 261.1 123.951C260.23 125.39 258.195 125.679 256.445 125.679C250.325 125.39 243.636 125.39 237.81 126.539C236.068 126.539 233.155 126.249 231.991 124.819C232.578 122.802 232.578 120.794 231.991 119.066Z" fill="#0C2C65"/>
<path d="M233.733 137.177C235.775 138.615 232.578 139.764 234.026 141.492H234.905C236.361 140.343 234.905 138.904 235.189 138.036C235.482 136.598 236.068 134.019 234.612 133.151C233.155 133.73 234.026 135.738 233.733 137.177ZM231.112 135.449C233.733 133.151 228.207 129.125 233.155 128.844C235.775 129.415 238.68 129.994 241.602 130.283C242.499 129.73 243.318 129.73 244.111 129.874L244.042 132.257C243.68 132.257 243.326 132.283 243.05 132.283C241.309 133.44 241.016 135.168 240.137 137.177C240.137 137.747 241.309 138.325 240.43 138.904C239.852 140.343 240.137 142.062 241.016 143.211L240.921 145.389C238.542 145.287 236.215 145.304 234.319 146.087C234.612 147.236 235.482 146.377 236.068 147.236L235.189 148.385L225.88 148.096C214.235 147.815 203.176 148.096 191.815 148.385C188.617 148.385 187.16 150.113 183.962 149.534C182.799 150.683 180.756 150.113 179.299 150.683C177.558 149.824 174.937 151.543 174.067 151.841C172.024 150.973 170.567 152.7 168.826 152.981C166.206 153.56 164.456 154.139 161.835 154.709C160.965 156.726 157.758 154.419 156.31 157.296C155.138 157.585 154.56 156.726 154.267 156.147C154.267 152.411 153.681 148.385 154.56 145.228L154.267 144.079H230.828C231.698 143.211 231.112 141.492 231.405 140.343C233.155 138.904 231.112 137.177 231.112 135.449Z" fill="#0C2C65"/>
<path d="M235.189 98.9466C235.189 98.6571 234.612 97.7975 234.025 98.087C233.732 98.3762 232.862 99.236 233.732 99.5252C234.319 99.8147 235.189 99.8147 235.189 98.9466ZM234.905 109.585C236.068 106.998 235.775 104.691 234.319 102.683L233.732 104.121C235.189 105.27 233.439 106.708 233.155 107.568C233.439 108.436 233.732 110.155 234.905 109.585ZM232.284 108.147C231.991 104.691 232.284 101.244 231.991 97.5083C232.862 96.3593 234.025 95.2103 235.775 96.0698L237.232 96.6488H246.55C250.041 95.2103 254.402 97.2274 257.316 94.6402L261.1 95.4997C259.643 100.385 262.264 104.691 260.23 109.585C259.35 109.874 258.195 109.585 257.609 110.445C255.859 109.585 253.532 109.585 251.782 110.445C249.17 108.436 246.55 112.172 244.223 109.874C241.016 110.734 237.525 110.734 233.732 110.734C232.578 110.445 233.155 109.006 232.284 108.147Z" fill="#0C2C65"/>
<path d="M241.016 88.3078C242.757 87.7377 241.016 86.2994 241.309 85.1504C241.309 84.0014 239.853 83.7122 238.68 83.4227C238.103 84.0014 237.232 84.5717 237.525 85.7291C238.396 86.5886 239.266 88.3078 241.016 88.3078ZM221.518 83.1418C220.053 83.1418 220.346 80.8354 218.898 81.4141C218.019 81.4141 218.312 82.5631 218.596 82.5631C221.518 82.5631 218.898 84.5717 219.769 86.01C220.346 86.5886 221.217 86.01 221.803 85.4396C222.096 84.8609 221.803 83.7122 221.518 83.1418ZM230.25 86.2994C231.112 86.2994 231.991 85.4396 231.991 84.2908C232.284 81.4141 229.078 83.4227 227.621 82.2737C226.75 82.5631 227.621 83.4227 227.337 84.2908C227.914 85.4396 228.785 86.8781 230.25 86.2994ZM234.025 86.2994C233.155 85.1504 232.284 86.01 231.405 86.5886C230.543 87.4482 231.698 88.3078 232.284 88.8867H213.071V87.7377C213.657 87.4482 214.812 87.4482 214.235 86.5886C214.528 85.7291 213.657 85.4396 213.071 85.4396L211.907 83.7122C212.485 83.4227 213.071 83.4227 212.778 82.5631C212.218 81.6353 211.045 80.7077 209.977 80.7077L209.925 79.1503C211.218 79.1503 212.261 77.7969 213.071 79.1163C214.528 78.8268 216.269 79.4055 217.441 78.5374C219.769 80.2651 222.967 77.0991 225.009 79.6864C229.664 79.9759 234.319 78.8268 238.396 80.5545H244.507V81.9845C242.473 83.1418 245.671 83.7122 245.093 85.1504C244.8 88.6058 249.17 86.2994 250.041 88.6058L249.981 89.5505C248.696 89.4739 247.438 89.2782 246.257 88.8867C242.473 88.6058 238.68 90.6144 234.905 88.8867C234.319 88.8867 233.44 89.4654 233.44 88.6058C234.025 88.0271 234.319 87.1673 234.025 86.2994Z" fill="#0C2C65"/>
<path d="M192.978 80.265C192.401 79.6864 191.53 80.5545 190.66 80.5545C189.487 83.7122 194.435 81.9845 193.271 85.1504C194.151 86.2994 195.314 85.4396 196.185 84.8609C195.892 84.2908 196.478 83.1418 195.607 83.1418C194.151 83.1418 193.271 81.4141 192.978 80.265ZM160.378 81.4141C161.542 79.9758 159.215 78.2567 158.051 79.9758C157.474 80.8354 158.344 81.9845 159.215 82.5631L160.378 81.4141ZM163.292 85.4396C163.869 86.01 165.042 85.7291 165.042 85.1504C165.326 84.0014 163.869 84.0014 163.292 83.7122C162.413 84.0014 162.706 85.4396 163.292 85.4396ZM168.533 80.8354C168.533 79.4055 166.205 79.1163 166.205 80.8354C166.205 81.695 167.076 81.9844 167.662 82.2736C168.24 81.9844 168.533 81.4141 168.533 80.8354ZM168.533 86.2994C169.697 85.7291 171.153 85.7291 171.731 84.2908C171.153 81.9844 169.403 84.8609 168.24 84.8609C167.955 85.4396 167.955 86.01 168.533 86.2994ZM177.265 86.01C178.144 86.2994 179.299 86.8781 179.885 86.01C180.471 84.0014 177.558 81.4141 175.808 82.8523C174.937 84.2908 176.678 84.8609 177.265 86.01ZM184.54 88.0271L160.378 87.7377C157.474 86.2994 151.069 89.1759 151.069 83.7122C151.647 81.695 150.199 79.1163 151.94 77.3886C157.181 77.6778 162.706 76.529 167.955 77.9672C169.403 76.8182 171.153 78.5373 172.61 77.3886C176.972 78.5373 182.212 77.0991 186.289 78.5373C193.858 78.8268 202.296 77.9672 209.58 79.1163C209.7 79.1417 209.813 79.1503 209.925 79.1503L209.977 80.7077C209.39 80.7077 208.83 80.98 208.416 81.695C208.123 84.0013 211.037 82.5631 211.907 83.7122L213.071 85.4396C212.485 86.01 212.192 87.1673 213.071 87.7377V88.8867H199.685C197.349 86.8781 195.021 90.3249 192.694 88.3078C190.073 89.1759 187.16 88.6058 184.54 88.0271ZM205.21 85.4396L205.503 84.5717C205.21 83.4227 203.175 81.9845 202.589 83.7122C203.175 84.8609 204.046 86.01 205.21 85.4396ZM186.583 84.0014C187.453 82.2737 185.126 82.2736 184.255 83.1418C183.962 83.7121 184.255 84.2908 184.833 84.5717C185.419 84.8609 186.289 84.5717 186.583 84.0014Z" fill="#0C2C65"/>
<path d="M150.483 150.113V165.058C145.535 162.471 144.079 157.015 138.545 155.858L122.538 169.943C121.952 163.049 122.245 157.015 122.245 150.113C131.27 149.824 141.165 149.824 150.483 150.113Z" fill="#0C2C65"/>
<path d="M138.838 161.033L148.742 170.233C142.622 172.82 136.217 170.233 129.529 171.093H128.942L138.838 161.033Z" fill="#0C2C65"/>
<path d="M140.295 85.1507C141.165 84.572 142.622 84.572 142.329 83.423C140.872 81.6953 142.622 80.2656 142.329 78.257C142.329 75.9506 138.545 74.8016 138.26 77.9675C139.717 79.6869 138.545 81.6953 138.545 84.0019C139.131 84.572 139.415 85.1507 140.295 85.1507ZM135.64 84.572C137.674 84.572 137.097 82.2742 137.967 80.8357C137.674 79.1166 138.545 76.2398 136.217 75.6697C132.149 76.8188 135.347 80.5548 134.183 83.1421C133.89 84.0019 134.769 84.572 135.64 84.572ZM145.536 86.5892H131.27C130.106 86.2997 131.563 85.4401 131.27 84.572L131.08 81.0912L130.684 73.6526C133.02 72.793 135.64 74.8016 137.967 73.3634C140.958 75.3462 143.32 72.657 145.949 72.3929C146.38 72.3589 146.82 72.3929 147.277 72.5038V73.0739C144.665 73.0739 146.121 75.6697 145.536 76.8188C145.828 80.5548 145.251 83.1421 145.536 86.5892Z" fill="#0C2C65"/>
<path d="M139.717 93.1931C137.967 95.2103 138.26 98.9463 139.131 101.534C139.717 102.113 140.588 102.113 141.165 101.244C142.329 98.9463 140.588 97.5081 141.751 95.2103C141.751 94.0612 140.588 93.4826 139.717 93.1931ZM132.149 96.6485C132.434 98.6571 131.27 101.823 134.183 102.113C137.967 101.244 134.476 97.7975 135.924 95.4995C135.64 94.3507 134.769 92.623 133.313 93.1931C131.563 93.7718 133.313 95.4995 132.149 96.6485ZM130.106 96.938C132.149 95.2103 129.529 92.9122 130.399 91.1845C131.856 91.474 134.476 91.7634 135.924 90.6144C137.674 91.7634 140.002 91.474 142.045 90.6144L143.493 89.1759C146.406 91.7634 144.079 96.359 145.251 99.8144C146.122 100.674 144.958 102.402 146.406 102.972L146.122 104.121C142.329 104.121 137.674 105.559 133.89 104.41C132.434 104.41 130.106 105.27 130.106 103.261C132.726 101.534 129.529 99.5252 130.106 96.938Z" fill="#0C2C65"/>
<path d="M147.863 121.653C148.742 118.785 147.277 114.47 148.449 111.304C147.863 110.444 147.863 109.006 146.406 108.725C145.535 109.006 145.828 110.155 145.828 111.023C146.699 113.602 145.535 116.478 144.958 118.785C146.122 119.644 145.535 121.083 145.828 121.942C146.406 122.802 147.277 122.521 147.863 121.653ZM141.751 112.453C141.751 111.304 139.717 110.155 138.838 111.304C138.545 114.18 137.967 117.346 139.415 119.934C142.045 119.934 141.751 117.057 142.329 115.329C142.329 114.18 140.872 113.602 141.751 112.453ZM135.054 108.436C137.381 109.006 140.002 109.295 142.622 108.436C144.958 109.295 145.828 106.997 148.156 107.857L149.613 111.023C148.742 115.329 149.32 119.066 149.026 123.38C148.449 124.24 147.277 124.24 146.122 124.819C144.958 123.38 144.079 125.389 142.915 125.108C139.415 123.381 135.924 125.968 132.434 124.24L130.399 123.951C130.106 120.793 131.27 117.346 130.106 113.891C130.985 112.453 130.399 110.444 130.106 109.006C131.563 109.006 133.89 109.585 135.054 108.436ZM134.476 120.504C137.381 119.066 135.64 115.04 135.924 112.453C135.924 111.593 135.054 110.734 134.183 110.734C132.434 111.023 132.434 112.742 131.563 113.891C131.563 115.619 131.563 117.346 132.149 118.785C132.434 119.644 133.313 121.083 134.476 120.504Z" fill="#0C2C65"/>
<path d="M131.856 131.432C133.019 133.44 130.985 135.168 131.563 137.466C131.563 138.325 133.606 138.615 131.856 139.194C131.563 140.343 131.563 142.062 132.434 142.93C133.313 143.211 135.054 143.5 135.347 142.351C135.054 140.913 136.217 139.474 135.924 137.747C136.217 136.598 134.183 136.028 135.64 135.168C135.924 133.151 136.217 129.994 133.606 129.704L131.856 131.432ZM129.236 147.236C129.529 141.202 128.942 133.44 129.813 127.687C134.183 126.827 139.131 127.976 142.329 126.538L145.535 126.827L145.828 145.798C146.406 146.087 147.863 146.377 147.863 145.228L148.156 128.844C147.863 127.976 146.406 126.827 148.156 126.538L149.613 127.406C149.897 133.44 149.026 139.764 149.897 145.798C149.613 146.666 148.742 147.236 147.863 147.526L129.236 147.236ZM141.751 141.202C141.458 138.325 142.329 135.738 142.045 132.87C141.751 131.713 140.872 130.853 139.717 130.564C137.674 132.002 139.415 134.879 138.545 136.887C139.131 138.904 137.967 142.062 140.295 142.93C141.751 143.789 141.165 141.781 141.751 141.202Z" fill="#0C2C65"/>
<path d="M130.395 81.1252H130.106V81.6953H130.395V81.1252Z" fill="#0C2C65"/>
<path d="M128.046 81.7461C128.072 82.6143 128.072 83.4821 128.072 84.2908C127.486 84.5717 126.9 84.8609 126.322 84.5717C125.451 83.4227 127.486 83.7122 127.193 82.5631C127.193 81.4141 127.193 79.4055 126.029 78.8268C126.322 77.6778 127.486 78.2567 127.779 78.8268C127.934 79.7461 128.012 80.7503 128.046 81.7461Z" fill="#0C2C65"/>
<path d="M126.029 144.079C124.865 145.509 126.615 146.088 125.744 147.237L106.884 147.279V145.526C107.609 145.526 108.298 145.203 108.858 144.65L109.152 133.73C109.729 133.151 110.315 132.581 110.315 131.713C110.022 131.143 109.152 130.854 108.272 130.854L108.298 128.802C111.824 128.845 115.435 128.845 119.047 128.845C120.504 126.539 121.952 128.266 123.995 128.266H125.744C125.744 130.564 123.702 132.581 125.158 134.59C125.158 137.747 124.288 141.203 126.029 144.079Z" fill="#0C2C65"/>
<path d="M108.565 103.832C110.315 102.683 112.643 100.964 113.513 98.6574C117.013 96.0701 118.754 91.772 121.081 88.0359L122.917 89.1081C122.228 90.2743 121.883 91.3976 123.702 92.0529H125.159C125.452 93.772 124.865 95.7892 125.452 97.5083C125.744 98.9466 127.193 100.674 125.159 101.823C125.452 102.683 125.744 103.542 125.159 104.411C121.374 105.27 117.297 104.121 113.22 104.691C111.953 105.049 110.677 105.415 109.548 105.985L108.565 103.832Z" fill="#0C2C65"/>
<path d="M135.64 66.1714C136.217 68.4777 138.545 67.3287 139.717 68.1885C142.329 67.3287 140.002 65.0309 141.165 63.0137L140.588 58.7073C140.295 57.5586 139.131 56.4095 137.674 56.4095C135.054 58.4181 137.381 63.3032 135.64 66.1714ZM128.072 67.6182V67.0395C128.072 65.6096 126.322 66.4691 125.451 65.8905C123.702 64.7414 125.451 62.1542 124.572 60.4265C124.288 56.9796 123.995 52.3838 121.667 49.5073L117.297 48.9286C112.927 52.0946 119.918 53.5328 119.331 56.6987C120.797 60.7159 117.297 64.4608 121.374 67.3287L128.072 67.6182ZM130.399 57.2691C130.106 54.1115 130.106 51.235 128.365 48.3582C127.779 47.7882 126.615 48.0688 126.029 48.9286C125.744 52.6732 125.744 56.9796 126.615 60.7159C128.658 61.2946 129.813 58.1287 130.684 57.5586L130.985 67.3287L132.149 67.6182C133.019 67.6182 133.313 66.4691 133.313 65.6096C135.924 63.0137 134.183 58.7073 134.769 55.55C135.054 54.9627 134.183 54.9627 133.89 54.6818C132.727 54.9627 131.563 56.1201 131.563 57.2691C131.347 57.4817 130.977 57.6946 130.684 57.5586C130.572 57.516 130.477 57.4223 130.399 57.2691ZM112.643 52.9541C112.35 50.6561 113.806 48.3582 116.133 47.2092C115.263 46.0604 117.013 45.771 117.013 44.9114C116.133 42.0347 119.331 40.8859 118.469 38.0092C121.081 36.0006 118.176 31.4047 121.667 30.2474C122.245 30.2474 122.538 29.3878 122.831 28.8089C124.572 30.2474 128.072 27.3706 128.365 31.1155C128.942 32.8346 128.365 33.4133 128.365 35.1324C130.399 39.1582 130.399 43.7624 132.727 47.7882C132.727 50.086 136.217 51.5242 135.347 54.1115C136.217 55.8309 137.097 53.8223 137.967 53.8223C140.872 55.55 143.208 58.7073 142.915 61.865C142.329 63.3032 142.915 65.3204 144.372 66.1714C145.251 66.4691 146.122 65.8905 146.122 65.0309C146.122 62.4436 146.699 58.7073 143.208 57.8478L144.665 52.6732C144.079 50.6561 145.251 48.0688 144.079 46.3497L146.122 44.0518C146.406 48.9286 146.699 53.2436 148.449 57.2691L147.277 59.5669C150.776 61.865 146.992 64.7414 148.742 67.3287L146.406 70.4863C146.173 70.5375 145.949 70.5715 145.725 70.5969C141.932 71.0481 138.597 68.5715 134.476 70.2054C130.985 69.3459 127.193 70.2054 123.702 70.7758L121.374 69.916L115.746 71.065L115.263 68.7672C118.176 66.7586 116.133 62.4436 116.711 59.2777C115.84 58.1287 115.556 56.6987 115.84 55.2605C114.875 55.0136 112.892 54.7753 112.591 55.8732L111.177 54.0775L112.643 52.9541Z" fill="#0C2C65"/>
<path d="M98.0838 54.6816L98.67 44.3325C99.256 44.0516 100.704 43.7624 101.29 43.7624C100.42 45.2006 100.127 47.4984 101.29 48.9284C101.575 52.3838 102.454 56.4093 102.739 60.1456C101.29 62.1542 102.161 65.6096 101.868 68.1883C103.032 69.6265 105.075 69.0564 106.824 69.0564C110.022 68.1883 108.858 65.0309 109.729 63.0137L110.022 54.9625L111.177 54.0775L112.591 55.8732C112.539 56.0861 112.548 56.3584 112.643 56.6987C112.927 59.2774 112.643 61.0051 112.056 63.5924C114.099 65.0309 110.893 65.8905 112.056 67.9074C112.927 68.4777 114.099 69.0564 115.263 68.7669L115.746 71.065L112.927 71.6351C111.186 71.3542 109.152 71.065 107.695 72.2138L102.385 72.3755L98.3768 72.5032C96.3427 70.4861 96.6356 67.6182 95.7565 65.3201C96.6356 63.3032 96.6356 60.7159 97.7995 58.9965L98.0838 54.6816Z" fill="#0C2C65"/>
<path d="M99.5406 142.062C99.8336 142.632 100.42 142.632 100.704 142.351C100.997 140.913 102.454 140.624 102.161 139.194C100.704 136.317 102.161 134.59 101.868 131.713C101.575 130.564 100.704 130.283 99.2563 130.283V133.441C97.5062 136.317 99.5406 139.194 99.5406 142.062ZM58.8901 134.453L59.3901 135.449C59.1916 135.543 58.9849 135.645 58.7867 135.739C54.4249 139.194 48.891 139.194 44.5295 142.93C47.1499 143.79 50.0549 143.501 52.9682 143.211L53.8387 142.632C55.2955 142.632 56.4593 142.062 57.6229 141.781C59.9588 141.492 61.7 139.194 64.3203 139.475L64.0274 138.905C64.8979 138.037 65.1909 138.615 66.0703 138.905L71.8886 135.739C72.4748 133.73 74.8019 134.019 76.2501 132.871C76.4915 132.632 76.9139 132.445 77.3189 132.207L78.3618 133.679C72.673 137.67 66.7253 141.254 59.9588 143.211L59.6573 143.79L97.2133 144.079C98.3768 141.781 97.5062 138.905 96.9203 136.887C98.0839 134.019 95.1792 130.283 98.3768 128.266C98.0839 128.266 98.0839 127.977 98.0839 127.687H98.963L98.6701 128.556C101.765 128.692 104.997 128.768 108.298 128.802L108.272 130.853C107.402 132.283 105.359 133.441 105.359 135.449C104.488 138.326 106.238 141.781 105.652 145.228C106.066 145.432 106.479 145.526 106.876 145.526V147.279L6.10283 147.526C5.80976 145.509 7.84402 144.079 9.59382 143.79L12.2142 143.501C17.455 141.781 22.1183 138.905 27.0573 137.177C30.5571 134.3 34.9185 133.73 38.7027 130.853C40.0386 130.726 41.1764 130.326 42.2022 129.755L42.728 130.513C37.5563 134.079 31.3154 135.543 26.4799 139.764C24.437 139.764 22.9889 140.913 21.2391 141.781C21.2391 142.351 20.6529 143.211 21.5321 143.501C25.1093 142.998 28.6865 141.603 31.6776 140.496L32.0396 141.466C30.2294 142.181 28.5745 143.39 26.7729 143.79L26.4799 144.36H34.6256C34.6256 143.501 35.5047 142.93 36.0824 142.351C38.7027 142.351 40.4524 140.624 42.4866 139.764C45.4001 140.913 47.1499 138.326 49.7616 138.037C50.3478 136.317 52.9682 137.177 53.8387 135.449C55.2955 136.598 56.4593 134.59 58.2091 135.168C58.4244 134.913 58.6573 134.675 58.8901 134.453Z" fill="#0C2C65"/>
<path d="M100.42 111.023C99.8338 111.304 98.9633 111.594 99.5406 112.453C99.8338 113.032 100.127 112.453 100.704 112.453C100.997 111.883 100.997 111.594 100.42 111.023ZM100.42 115.041C97.5065 116.768 98.9633 120.505 98.9633 123.092C99.2562 124.241 100.42 123.951 100.997 123.951C102.454 123.67 101.868 122.232 102.161 121.083C100.997 119.934 102.454 118.785 101.868 117.058C102.161 116.198 101.868 114.76 100.42 115.041ZM79.1636 130.283C80.0342 129.705 82.3702 129.126 81.491 127.688C83.827 128.556 84.1113 124.82 86.1543 125.39C88.4817 123.381 91.3864 120.794 94.0153 118.496C96.6359 116.479 98.3771 113.321 97.7995 109.875C99.2562 109.585 101.575 109.296 102.739 110.155C103.911 109.585 105.359 108.436 105.075 106.708C105.005 106.692 104.945 106.674 104.876 106.649L104.773 104.581C105.867 104.572 107.359 103.236 108.565 103.832L109.548 105.985C108.867 106.325 108.238 106.743 107.695 107.287C106.824 110.155 110.022 109.875 111.772 110.445C115.84 109.296 120.211 110.445 123.995 108.436C125.451 109.006 126.322 109.875 126.322 111.304C123.702 114.47 126.029 118.496 126.029 122.521C125.745 123.381 124.866 124.241 123.702 125.109C119.633 125.39 115.84 123.381 111.479 125.109H98.3771C95.1791 123.951 100.704 117.628 95.4635 119.934C94.8862 120.794 92.8432 121.083 93.1361 122.521C91.9726 122.521 91.3864 123.67 90.5158 124.241C90.5158 125.968 88.1884 125.679 87.3179 126.828V127.977H86.1543C83.5769 129.892 80.9996 131.824 78.3621 133.679L77.3191 132.207C77.9139 131.866 78.4655 131.424 78.2931 130.564C78.586 130.283 78.8707 130.283 79.1636 130.283Z" fill="#0C2C65"/>
<path d="M98.963 99.8147C99.2559 100.674 98.3768 102.113 98.963 103.262C99.8335 104.981 100.42 102.683 101.575 102.683C101.868 99.236 101.868 96.938 101.575 93.4828C100.997 93.772 99.5406 93.1934 99.2559 94.0615C99.2559 95.7892 98.0838 97.7978 98.963 99.8147ZM75.3795 125.39C71.8885 128.266 68.1044 131.432 64.0273 132.871C62.7343 133.892 60.9932 134.683 59.3898 135.449L58.89 134.454C62.3809 131.058 67.4838 130.292 71.3109 126.249C72.7591 125.968 72.4745 123.951 74.5089 124.53C74.5089 122.521 76.543 123.381 77.4136 122.232C81.7839 118.496 86.7316 115.909 90.8173 111.304C92.5585 110.155 94.5929 109.296 96.0494 107.287C98.67 104.981 96.3426 102.113 96.3426 99.236C96.6356 98.3765 94.2997 98.087 95.7564 97.5083L96.3426 94.9211C96.3426 90.8956 100.997 91.7634 103.618 91.7634C104.488 93.772 106.531 91.4742 107.695 92.3338C110.203 92.887 112.962 92.6487 114.728 90.8698L115.633 91.0402C112.056 95.2445 106.169 98.5125 103.618 103.542C103.885 104.334 104.29 104.589 104.773 104.581L104.876 106.649C103.781 106.3 102.67 105.287 101.575 105.56C99.5406 106.13 97.7994 107.857 96.9202 109.585C91.9723 111.883 88.1884 117.917 83.2407 119.934L80.6201 121.653C79.4566 122.232 79.4566 124.241 77.9998 123.951C78.293 125.968 76.25 124.82 75.3795 125.39Z" fill="#0C2C65"/>
<path d="M101.29 77.0991C101.29 75.38 99.2562 76.529 98.67 75.9503V85.4398C99.5406 85.4398 100.42 86.8781 101.29 86.0099V77.0991ZM84.1113 99.5252C84.1113 98.0867 82.3702 98.6571 82.0769 99.5252L82.9564 100.095C83.2408 100.385 84.1113 100.095 84.1113 99.5252ZM80.6204 101.823C80.9134 102.112 81.784 102.112 81.784 101.534C81.784 100.955 81.491 100.385 80.6204 100.674C80.3272 100.674 80.0342 101.534 80.6204 101.823ZM64.8979 119.645C62.2862 123.092 57.9161 124.819 55.2955 128.556C53.5457 129.126 52.0975 130.564 50.641 131.432H50.0548C45.4001 134.879 39.8662 138.036 34.6255 140.913C33.7117 140.913 32.8583 141.134 32.0396 141.466L31.6776 140.496C32.0912 140.343 32.4964 140.19 32.8844 140.054C33.755 138.615 35.5047 138.905 36.0823 137.466C39.2889 136.317 41.9006 133.73 44.8139 132.871C52.0975 127.977 58.7867 122.802 65.1909 117.057C70.1388 113.891 73.3454 109.296 77.9998 106.129C78.586 105.27 77.4139 104.981 76.8363 104.41L70.1388 110.734C67.8115 111.593 65.7771 113.892 64.0273 115.908C61.7 118.496 58.2091 118.785 56.7523 121.653C54.4249 122.521 52.3822 124.53 50.3478 125.679C48.0204 127.977 45.4001 128.266 43.0727 130.283C42.9608 130.368 42.8402 130.445 42.728 130.513L42.2022 129.755C45.8569 127.73 48.0033 123.577 52.0976 122.232C53.5457 120.794 55.5887 119.066 57.3385 118.496C59.6572 116.198 62.8638 113.602 65.4841 111.593C68.3977 111.304 69.5612 107.857 72.4748 106.708C72.1816 103.542 75.6725 103.832 77.1293 101.823C79.7499 97.5081 85.2835 96.0698 87.3179 91.1845C90.8174 88.8867 92.8432 84.8612 96.0497 82.8526H96.9203L97.2133 74.8013C98.8596 74.529 100.627 74.4012 102.445 74.3418C106.402 74.2141 110.6 74.4184 114.384 74.2226C116.427 71.6354 119.331 76.529 121.667 73.3631L124.288 74.5118V86.5889C124.167 87.3293 123.443 88.2314 122.917 89.1079L121.081 88.0357C119.633 86.2994 118.176 88.308 117.013 89.1761C116.608 89.8228 116.151 90.4441 115.634 91.0399L114.728 90.8696C114.815 90.7847 114.892 90.6995 114.97 90.6144C114.384 89.1762 116.133 89.1761 115.84 88.0271C114.099 86.5889 110.608 87.1676 107.988 87.4485L100.997 88.0271C98.963 86.8781 95.7565 88.308 96.0497 85.1504L95.7565 87.1676C92.8432 90.8953 89.6452 95.2103 86.4473 98.6571C84.4043 102.402 79.4566 104.691 78.586 108.725H77.9998C76.8363 109.296 75.3795 110.444 75.9657 111.883L74.8019 111.593C73.3454 111.883 72.7592 113.321 73.3454 114.47C73.0521 114.47 72.4748 114.47 72.1816 114.181C71.311 114.759 69.5612 115.619 70.7248 117.057C68.6907 116.768 66.9409 118.785 64.8979 119.645Z" fill="#0C2C65"/>
<path d="M118.737 150.973V169.944C112.194 170.565 97.7736 168.624 92.5413 164.199C92.3517 161.16 90.1881 149.824 94.722 149.824C102.437 149.824 112.582 149.229 118.737 150.973Z" fill="#0C2C65"/>
</g>
</g>
<defs>
<clipPath id="clip0_8_17">
<rect width="384" height="241" fill="white"/>
</clipPath>
</defs>
</svg>
