<svg width="173" height="109" viewBox="0 0 173 109" fill="none" xmlns="http://www.w3.org/2000/svg">
<g clip-path="url(#clip0_82_538)">
<mask id="mask0_82_538" style="mask-type:luminance" maskUnits="userSpaceOnUse" x="0" y="0" width="173" height="109">
<path d="M173 0H0V109H173V0Z" fill="white"/>
</mask>
<g mask="url(#mask0_82_538)">
<path d="M21.3236 24.3237C8.36865 37.134 0 53.8899 0 67.0121V107.999C0 108.423 0.349502 108.769 0.776673 108.769C1.20384 108.769 1.55334 108.423 1.55334 107.999V67.0121C1.55334 54.2787 9.74336 37.9462 22.4187 25.4091C37.9832 10.0158 58.7282 1.53972 80.8283 1.53972C102.929 1.53972 123.941 9.64244 139.491 24.3506C152.504 36.6605 160.585 52.4579 160.585 65.5839L160.65 108.23C160.65 108.654 161.001 109 161.427 109C161.855 109 162.204 108.654 162.204 108.23L162.139 65.5839C162.139 52.0537 153.87 35.8291 140.562 23.238C124.722 8.25284 103.507 0 80.8283 0C58.1495 0 37.1794 8.63778 21.3236 24.3237Z" fill="white"/>
<path d="M19.1101 107.733H9.70459V107.083C11.6268 106.925 12.2598 106.871 12.2598 104.677V90.9084C10.4152 91.0123 7.70076 91.1432 7.17262 95.3235H6.4076L6.48527 90.0731H22.2983L22.3489 95.3235H21.5837C21.0556 91.1432 18.3412 91.0123 16.5238 90.9084V104.677C16.5238 106.898 17.1567 106.952 19.1062 107.083V107.733" fill="white"/>
<path d="M32.9542 89.6805C27.867 89.6805 23.6225 93.2604 23.6225 98.9535C23.6225 104.647 27.5525 108.226 32.9542 108.226C38.3561 108.226 42.2859 104.439 42.2859 98.9535C42.2859 93.4683 38.0415 89.6805 32.9542 89.6805ZM32.9542 90.5389C36.6434 90.5389 37.6181 95.1388 37.6181 98.9535C37.6181 101.225 37.4589 107.364 32.9542 107.364C28.4495 107.364 28.2904 101.225 28.2904 98.9535C28.2904 95.1388 29.2651 90.5389 32.9542 90.5389Z" fill="white"/>
<path d="M63.1046 100.889C61.4698 101.07 60.8368 101.147 60.8368 103.291V106.61C59.5709 107.499 56.0136 108.23 53.7186 108.23C47.1323 108.23 44.1772 103.607 44.1772 99.061C44.1772 93.9146 47.8158 89.6843 53.5089 89.6843C55.8778 89.6843 57.9087 90.9622 58.5962 90.9622C59.2835 90.9622 59.5436 90.4157 59.8078 89.7612H60.5183V95.8738H59.8621C58.9417 93.5989 56.7282 90.5427 53.7224 90.5427C49.9012 90.5427 48.845 94.5151 48.845 99.0111C48.845 100.866 49.0042 107.372 53.9865 107.372C56.305 107.372 56.7282 106.59 56.7282 105.462V102.722C56.7282 101.047 55.8816 100.993 54.0642 100.893V100.239H63.1046V100.893" fill="white"/>
<path d="M64.1338 90.0731H79.3411V95.3235H78.6848C78.079 91.6128 76.2073 90.9584 72.65 90.9584C71.2015 90.9584 70.7277 91.0624 70.7277 92.1863V98.245C73.2558 98.272 74.5994 97.5907 74.9957 94.3534H75.683V103.184H74.9957C74.6811 99.9156 73.3335 99.1343 70.7277 99.1343V105.459C70.7277 106.61 71.2288 106.925 72.9414 106.925C75.5238 106.925 78.215 106.244 79.873 102.302H80.611L79.5547 107.733H64.1378V107.083C65.6406 106.925 66.4561 106.848 66.4561 105.228V92.5828C66.4561 90.8545 65.3494 90.8044 64.1378 90.7275V90.0768" fill="white"/>
<path d="M94.8123 107.733H85.403V107.083C87.3252 106.925 87.9622 106.871 87.9622 104.677V90.9084C86.1176 91.0123 83.4031 91.1432 82.8749 95.3235H82.1099L82.1915 90.0731H98.0045L98.0588 95.3235H97.2938C96.7657 91.1432 94.0551 91.0123 92.2339 90.9084V104.677C92.2339 106.898 92.8669 106.952 94.8163 107.083V107.733" fill="white"/>
<path d="M118.874 107.734H109.911V107.083C111.309 106.925 112.284 106.822 112.284 105.228V99.2192H105.934V105.228C105.934 106.818 106.909 106.925 108.303 107.083V107.734H99.4219V107.083C100.82 106.902 101.663 106.771 101.663 105.228V92.5831C101.663 90.8816 100.529 90.8315 99.4219 90.7277V90.0771H108.303V90.7277C107.142 90.8085 105.934 90.8585 105.934 92.5831V97.9913H112.284V92.5831C112.284 90.8547 111.072 90.8046 109.911 90.7277V90.0771H118.874V90.7277C117.74 90.8085 116.555 90.8854 116.555 92.5831V105.228C116.555 106.795 117.476 106.898 118.874 107.083V107.734Z" fill="white"/>
<path d="M119.794 90.0731H135.001V95.3235H134.341C133.735 91.6128 131.864 90.9584 128.303 90.9584C126.854 90.9584 126.38 91.0624 126.38 92.1863V98.245C128.912 98.272 130.252 97.5907 130.648 94.3534H131.335V103.184H130.648C130.333 99.9156 128.986 99.1343 126.38 99.1343V105.459C126.38 106.61 126.877 106.925 128.59 106.925C131.172 106.925 133.863 106.244 135.526 102.302H136.263L135.207 107.733H119.79V107.083C121.293 106.925 122.109 106.848 122.109 105.228V92.5828C122.109 90.8545 121.002 90.8044 119.79 90.7275V90.0768" fill="white"/>
<path d="M155.797 107.083C155.481 107.083 155.085 107.056 154.717 106.587L149.42 99.1384C150.842 98.6957 153.56 97.8873 153.56 94.6732C153.56 90.285 147.972 90.0771 146.131 90.0771H137.642V90.7277C139.145 90.8315 139.964 90.8854 139.964 93.1334V104.681C139.964 106.798 139.436 106.875 137.642 107.087V107.738H146.554V107.087C144.815 106.852 144.236 106.775 144.236 104.681V99.5579H144.947L150.403 107.738H155.805V107.087M144.236 92.0634C144.364 91.255 144.418 90.9663 145.867 90.9663C147.976 90.9663 149.055 92.0903 149.055 94.7271C149.055 98.126 147.684 98.6995 144.232 98.7264V92.0596L144.236 92.0634Z" fill="white"/>
<path d="M169.555 89.6805C170.123 89.6805 170.674 89.823 171.209 90.1117C171.745 90.3966 172.165 90.8084 172.467 91.3434C172.771 91.8785 172.923 92.4328 172.923 93.0141C172.923 93.5953 172.775 94.1418 172.476 94.673C172.181 95.2004 171.765 95.6122 171.229 95.9049C170.693 96.1973 170.138 96.3436 169.555 96.3436C168.972 96.3436 168.417 96.1973 167.886 95.9049C167.353 95.6122 166.937 95.2004 166.638 94.673C166.344 94.1457 166.192 93.5915 166.192 93.0141C166.192 92.4367 166.344 91.8785 166.648 91.3434C166.95 90.8084 167.368 90.4004 167.906 90.1117C168.441 89.8267 168.992 89.6805 169.555 89.6805ZM169.555 89.9692C169.039 89.9692 168.538 90.1002 168.045 90.3619C167.555 90.6237 167.171 91.0009 166.895 91.4858C166.62 91.9709 166.484 92.4789 166.484 93.0102C166.484 93.5414 166.62 94.0379 166.887 94.519C167.159 95.0003 167.537 95.3774 168.025 95.6469C168.511 95.9164 169.024 96.0511 169.555 96.0511C170.088 96.0511 170.596 95.9164 171.085 95.6469C171.575 95.3774 171.956 95.0041 172.223 94.519C172.495 94.0379 172.627 93.5337 172.627 93.0102C172.627 92.4867 172.492 91.9747 172.215 91.4858C171.939 91.0009 171.56 90.6237 171.067 90.3619C170.576 90.1002 170.073 89.9692 169.552 89.9692H169.555ZM167.699 90.9623H169.532C169.991 90.9623 170.34 91.0663 170.581 91.2702C170.821 91.4743 170.942 91.7246 170.942 92.0133C170.942 92.2518 170.86 92.4597 170.698 92.6406C170.534 92.8215 170.262 92.9602 169.881 93.0563L170.88 94.4499C171 94.6153 171.109 94.7308 171.202 94.7925C171.264 94.8309 171.346 94.8539 171.455 94.8616V95.0195H170.581L169.183 93.1179H168.825V94.5652C168.845 94.6692 168.887 94.7423 168.962 94.7885C169.032 94.8347 169.174 94.8579 169.385 94.8579V95.0156H167.649V94.8579C167.801 94.8579 167.906 94.8386 167.971 94.804C168.033 94.7693 168.08 94.7154 168.107 94.6461C168.13 94.5961 168.142 94.4499 168.142 94.2111V91.7553C168.142 91.5244 168.138 91.3858 168.126 91.3473C168.103 91.2742 168.065 91.2203 168.006 91.1818C167.948 91.1432 167.846 91.124 167.704 91.124V90.9546L167.699 90.9623ZM168.822 92.9178C169.194 92.9178 169.466 92.8831 169.64 92.81C169.812 92.7369 169.944 92.6368 170.036 92.5059C170.13 92.3751 170.173 92.2288 170.173 92.0632C170.173 91.8092 170.083 91.5975 169.904 91.4242C169.727 91.251 169.498 91.1664 169.218 91.1664C169.097 91.1664 168.965 91.1933 168.818 91.2433V92.9178H168.822Z" fill="white"/>
<path d="M167.871 90.0425C167.323 90.335 166.887 90.7584 166.581 91.3013C166.274 91.844 166.118 92.4175 166.118 93.0064C166.118 93.5954 166.27 94.1612 166.573 94.7001C166.875 95.2391 167.308 95.6625 167.846 95.9627C168.387 96.2591 168.962 96.4131 169.555 96.4131C170.15 96.4131 170.724 96.2629 171.268 95.9627C171.812 95.6663 172.243 95.2391 172.546 94.7001C172.848 94.1612 173 93.5915 173 93.0064C173 92.4214 172.845 91.844 172.537 91.3013C172.231 90.7584 171.797 90.335 171.249 90.0425C170.701 89.75 170.133 89.6036 169.555 89.6036C168.977 89.6036 168.414 89.75 167.871 90.0425ZM167.924 95.8317C167.408 95.547 167 95.1428 166.708 94.6308C166.418 94.115 166.274 93.5723 166.274 93.0103C166.274 92.4484 166.421 91.8979 166.717 91.3782C167.007 90.8585 167.423 90.4582 167.944 90.1772C168.469 89.9 169.012 89.7576 169.56 89.7576C170.108 89.7576 170.654 89.9 171.179 90.1772C171.699 90.4544 172.115 90.8585 172.405 91.3782C172.701 91.8979 172.848 92.4484 172.848 93.0103C172.848 93.5723 172.701 94.115 172.414 94.6308C172.126 95.1466 171.715 95.5508 171.199 95.8317C170.678 96.1167 170.126 96.2629 169.563 96.2629C169 96.2629 168.449 96.1204 167.928 95.8317H167.924Z" fill="white"/>
<path d="M168.01 90.2965C167.51 90.566 167.113 90.9508 166.83 91.4513C166.55 91.9479 166.406 92.4714 166.406 93.0103C166.406 93.5491 166.546 94.0688 166.822 94.5576C167.097 95.0504 167.49 95.4392 167.986 95.7124C168.484 95.9857 169.012 96.1244 169.552 96.1244C170.091 96.1244 170.619 95.9857 171.12 95.7124C171.622 95.4392 172.014 95.0504 172.29 94.5576C172.564 94.0649 172.706 93.5453 172.706 93.0103C172.706 92.4751 172.561 91.9479 172.282 91.4513C171.998 90.9547 171.602 90.566 171.102 90.2965C170.601 90.027 170.08 89.8923 169.552 89.8923C169.024 89.8923 168.504 90.027 168.006 90.2965H168.01ZM168.065 95.5815C167.59 95.3197 167.221 94.9541 166.957 94.4845C166.693 94.0187 166.561 93.5221 166.561 93.0103C166.561 92.4983 166.698 91.9978 166.965 91.5244C167.233 91.051 167.61 90.6853 168.083 90.4312C168.561 90.1772 169.054 90.0463 169.555 90.0463C170.056 90.0463 170.557 90.1772 171.032 90.4312C171.505 90.6853 171.882 91.0548 172.15 91.5244C172.417 91.9978 172.554 92.4983 172.554 93.0103C172.554 93.5221 172.422 94.0149 172.158 94.4845C171.897 94.9504 171.52 95.3197 171.047 95.5815C170.573 95.8432 170.068 95.9742 169.555 95.9742C169.042 95.9742 168.538 95.8432 168.065 95.5815Z" fill="white"/>
<path d="M167.622 90.8854V91.2088H167.699C167.854 91.2088 167.924 91.2319 167.956 91.2549L168.045 91.3782C168.045 91.4089 168.056 91.763 168.056 91.763V94.219C168.056 94.5384 168.038 94.6115 168.03 94.623L167.924 94.7425C167.889 94.7617 167.812 94.7847 167.642 94.7847H167.563V95.0966H169.455V94.7847H169.376C169.121 94.7847 169.027 94.7501 168.997 94.727C168.942 94.6924 168.91 94.6347 168.895 94.5539C168.895 94.5539 168.895 93.3335 168.895 93.195H169.136C169.183 93.2566 170.534 95.0966 170.534 95.0966H171.525V94.804L171.455 94.7847L171.237 94.727C171.152 94.6692 171.05 94.5614 170.935 94.4037C170.935 94.4037 170.098 93.2334 169.998 93.0911C170.332 92.9909 170.592 92.8601 170.748 92.6907C170.926 92.4983 171.015 92.2673 171.015 92.0133C171.015 91.7015 170.883 91.4321 170.627 91.2126C170.375 90.9971 170.001 90.8854 169.528 90.8854H167.617H167.622ZM169.532 91.0394C169.971 91.0394 170.305 91.1357 170.529 91.3281C170.756 91.5206 170.865 91.7438 170.865 92.0133C170.865 92.2326 170.79 92.4212 170.639 92.5907C170.487 92.7601 170.223 92.8909 169.862 92.9834L169.754 93.0103L170.813 94.496C170.942 94.6732 171.055 94.7887 171.155 94.8579C171.155 94.8579 171.287 94.8965 171.373 94.9195V94.9426H170.619C170.573 94.881 169.221 93.041 169.221 93.041H168.748V94.5654C168.771 94.7039 168.83 94.7962 168.919 94.8541C168.992 94.904 169.124 94.9272 169.306 94.931V94.9387H167.727V94.9234C167.839 94.9157 167.948 94.908 168.01 94.8733L168.18 94.6769C168.197 94.6385 168.22 94.5461 168.22 94.2113V91.7554L168.205 91.3281L168.053 91.1164C167.998 91.078 167.893 91.0703 167.784 91.0625V91.0316H169.54L169.532 91.0394Z" fill="white"/>
<path d="M168.733 91.182L168.743 91.2436V92.995H168.822C169.209 92.995 169.485 92.9566 169.672 92.8795C169.859 92.8026 170.001 92.6909 170.103 92.5484C170.205 92.4061 170.255 92.2405 170.255 92.0596C170.255 91.7863 170.158 91.5515 169.963 91.3668C169.769 91.182 169.52 91.0857 169.226 91.0857L168.736 91.1782L168.733 91.182ZM169.221 91.2436C169.482 91.2436 169.687 91.3205 169.854 91.4784C170.018 91.6361 170.098 91.8287 170.098 92.0596C170.098 92.2098 170.056 92.3445 169.976 92.46C169.894 92.5754 169.769 92.6679 169.614 92.737C169.466 92.7987 169.221 92.8295 168.903 92.8333V91.3013C168.98 91.286 169.226 91.2398 169.226 91.2398L169.221 91.2436Z" fill="white"/>
<path d="M149.498 62.5625C150.022 63.0821 150.939 62.8243 151.467 62.5625C151.366 62.3777 151.245 62.2507 151.117 62.1583L151.397 61.4961C152.43 61.9273 153.498 62.2544 154.612 62.4316C155.269 63.4748 156.582 62.5625 157.498 62.9551C157.762 63.4748 157.105 64.5101 157.89 64.7719V65.1646C154.243 65.2993 150.492 65.2916 146.745 65.2954V64.5101C147.533 63.7326 149.106 64.6449 149.894 63.7326C149.486 63.4092 148.927 63.1899 148.376 62.9396L148.686 62.2469C148.954 62.3815 149.218 62.4393 149.498 62.3008V62.5625Z" fill="white"/>
<path d="M141.37 62.9551C140.842 62.6933 140.318 61.9118 139.661 61.9118C139.009 60.8726 137.696 61.2613 137.172 60.3528C134.023 59.0518 131.665 55.4142 129.04 53.3317L129.172 54.2442C130.481 56.4535 132.974 58.1435 134.679 60.222C136.78 61.3921 139.009 63.0821 141.37 62.9551ZM132.71 59.4445C131.137 57.2311 128.256 55.934 127.992 53.2009C127.468 52.943 127.6 52.4234 127.336 51.9037L127.588 51.3609L128.776 51.9037C132.058 54.6329 134.415 58.0125 138.221 59.9641C139.925 60.6146 141.63 62.5624 143.727 62.9551C144.516 62.5624 145.172 63.3438 145.956 63.6017C145.956 63.9944 146.352 64.5101 146.745 64.5101V65.2954C143.347 65.2954 139.953 65.2992 136.648 65.4224L129.565 65.2915C128.908 65.0336 129.697 64.7719 129.565 64.3831L130.089 64.1252C133.106 64.3831 136.384 64.2522 139.661 64.2522C139.925 64.1252 139.925 63.8634 139.925 63.7326C138.481 63.2129 136.908 62.6933 135.727 61.7809C134.415 61.6539 133.763 60.222 132.71 59.4445Z" fill="white"/>
<path d="M128.256 66.5926C128.12 68.2824 128.516 70.2342 128.12 71.793H127.072L127.86 73.2212C126.811 73.8717 125.891 73.483 124.71 74.0025C124.054 73.6138 122.745 73.7447 123.402 72.4435L125.759 70.2341C125.891 69.4527 125.106 69.5836 124.582 69.4527C123.662 69.9724 123.27 71.2734 122.878 72.1818C123.27 72.9632 122.221 73.094 121.957 73.483C120.516 74.2643 118.812 74.1335 117.107 74.0025C116.451 73.094 117.499 72.0548 117.107 71.0155C117.895 70.365 117.239 69.5836 117.107 68.8022C117.631 67.6319 116.322 65.8113 118.547 66.2039C120.12 66.5926 122.353 66.2039 124.054 66.4618C125.367 66.3348 127.204 66.3348 128.256 66.5926Z" fill="white"/>
<path d="M128.776 45.5331L127.336 43.9741C127.32 44.1897 127.316 44.4052 127.324 44.6131L126.811 44.6208C126.703 44.2937 126.776 43.3313 126.264 43.3313L126.404 42.6923C126.936 42.804 127.421 43.0927 127.728 43.5815C129.172 43.0618 129.04 44.6208 129.957 45.0135L132.45 47.4809C133.498 49.3016 135.335 50.3409 137.04 51.2532C139.533 53.9823 142.154 56.5843 145.692 58.1433C147.513 59.4329 149.389 60.6608 151.397 61.496L151.117 62.1582C150.418 61.6654 149.397 62.2697 148.846 61.3921C147.533 61.5229 147.137 59.7023 146.22 59.4444C146.22 59.7023 145.956 59.8293 145.828 59.7023C144.908 59.1826 143.859 58.663 143.075 58.0125C142.418 57.2311 141.498 56.5843 140.582 56.4535C139.661 55.6721 138.877 55.0215 138.353 53.9823C137.432 53.7244 136.516 52.943 135.863 52.0307L134.679 50.9914H134.415L134.287 51.3802L137.04 54.371C137.828 54.8907 138.221 55.6721 139.137 55.9338C139.269 56.7113 140.189 57.3619 140.842 57.6236C141.63 58.663 143.075 59.4444 144.384 59.9641C145.04 60.8724 146.22 61.1342 147.137 61.5229C147.727 61.5229 148.209 62.0042 148.686 62.2467L148.376 62.9395C148.038 62.7895 147.7 62.6316 147.401 62.4314C146.22 62.1736 145.172 61.5229 143.991 61.0034C139.793 58.5321 136.648 55.4142 133.498 51.9037C132.322 49.6942 129.957 47.7426 128.776 45.5331Z" fill="white"/>
<path d="M125.499 33.0499C126.287 32.5341 125.891 31.1021 125.891 30.1938C125.759 29.9281 125.367 29.2815 124.974 29.674C124.846 30.9713 124.582 32.1414 125.499 33.0499ZM125.631 27.2028C125.891 25.6439 125.238 23.6922 126.023 22.3912C126.939 23.5614 126.023 25.6439 126.811 26.941C126.811 27.7225 126.551 28.631 127.204 29.1543C127.072 29.9281 127.071 30.8403 127.468 31.4909V33.9621H126.415C125.246 34.2201 124.046 34.1585 122.893 34.0622L122.924 33.7081C122.99 33.7235 123.06 33.7196 123.138 33.7004C124.19 32.7919 123.534 30.8403 123.662 29.674C123.794 29.1543 123.138 28.631 122.745 29.0235L122.221 28.631C122.745 28.5 122.745 27.072 123.534 27.9803C123.662 28.5 124.19 28.7618 124.582 29.1543C125.759 29.2815 125.238 27.8533 125.631 27.2028Z" fill="white"/>
<path d="M126.811 39.9403L126.679 36.4336H126.415C125.891 36.5606 126.155 37.2112 126.023 37.6038C125.759 38.3813 126.155 39.2936 126.155 40.2021C126.415 40.2021 126.811 40.2021 126.811 39.9403ZM123.534 39.8133C123.794 39.8133 124.054 39.5516 123.926 39.2936C123.662 38.5123 123.926 38.1235 123.662 37.342C123.534 37.342 123.27 37.342 123.138 37.473C123.138 38.2505 122.745 39.4245 123.534 39.8133ZM124.45 40.8526C123.794 40.8526 122.877 40.5908 122.481 41.3723C121.829 40.4638 120.516 41.1106 119.6 40.7216C119.468 39.2936 119.6 37.6038 119.6 36.1718C121.305 35.3943 122.745 36.8225 124.19 35.914C125.499 36.4336 126.415 34.7437 127.6 35.3943C127.6 35.914 127.468 36.5607 127.6 37.0803C126.94 38.2505 128.384 40.7216 126.415 41.1106C125.631 40.8526 124.974 41.8919 124.45 40.8526ZM122.089 37.8618C122.221 37.2112 121.305 37.2112 120.909 37.6038C120.909 38.3813 120.909 39.2936 121.433 39.6824C121.829 39.4245 122.353 38.6431 122.089 37.8618Z" fill="white"/>
<path d="M125.106 45.6642C124.71 45.1445 125.106 44.3631 124.582 43.9742C124.318 43.7125 123.794 43.8434 123.534 44.1014C122.877 44.621 124.054 45.0137 123.402 45.5332C123.138 46.053 123.27 46.8305 123.926 47.223C124.19 47.7428 124.582 47.3501 124.846 46.9613C124.582 46.4417 125.367 46.1838 125.106 45.6642ZM120.516 46.9613C120.908 47.0922 121.697 47.3501 121.697 46.7035C121.433 45.7912 122.353 42.5424 120.256 44.2322C120.12 45.1445 119.86 46.1838 120.516 46.9613ZM121.173 42.6732C122.221 43.4507 123.534 42.4114 124.582 42.9312C125.138 42.6579 125.802 42.5616 126.404 42.6924L126.264 43.3314C126.163 43.3314 126.042 43.3661 125.891 43.4507C126.287 45.1445 125.891 46.8305 126.023 48.5241C126.155 48.782 126.551 48.6512 126.679 48.6512L126.811 44.621L127.324 44.6132C127.374 46.1685 127.945 47.5696 127.6 49.1747L126.679 49.5635C126.578 49.5635 126.477 49.575 126.376 49.575C124 49.6636 121.74 49.2901 119.6 49.0438C118.944 48.6512 119.86 48.1315 119.6 47.6118C119.204 46.1838 118.944 44.2322 119.6 43.062C120.256 43.062 120.648 42.9312 121.173 42.6732Z" fill="white"/>
<path d="M124.19 55.5416C125.759 55.5416 124.974 53.8518 125.367 52.9433C125.367 52.4236 124.846 52.1618 124.318 52.031C123.27 52.4236 123.01 53.5938 123.27 54.6331C123.662 54.891 123.534 55.6724 124.19 55.5416ZM125.891 53.7247L126.155 55.8033C126.415 55.9341 126.679 55.8033 126.811 55.5416L126.679 51.3805L126.415 51.1225C125.759 51.773 126.287 53.0742 125.891 53.7247ZM126.415 56.1921C124.71 56.1921 122.878 56.3229 121.173 56.0611C122.353 55.5416 121.957 53.463 121.697 52.1618C121.305 51.904 120.648 52.031 120.12 52.2928C119.336 52.8125 120.12 53.463 119.992 54.1135C119.86 54.891 119.992 55.9341 120.909 56.0611C120.648 56.3229 119.992 56.1921 119.468 56.1921C119.204 54.764 119.336 53.2012 119.336 51.773C119.728 51.5113 119.992 50.7337 120.516 50.9917C122.613 50.7337 124.582 51.5113 126.415 50.603C126.551 50.8608 127.204 50.603 127.072 51.1225L127.588 51.3613L127.336 51.904L127.072 52.1618L127.204 56.4538C127.072 56.7118 126.679 56.4538 126.415 56.1921Z" fill="white"/>
<path d="M127.6 62.8241C126.415 62.1736 127.204 60.353 126.939 59.1828H126.415C125.891 60.8726 126.023 62.9551 126.287 64.6449C127.6 65.1646 126.811 63.3438 127.6 62.8241ZM118.944 64.7719C119.204 63.9944 119.204 63.2129 118.944 62.4316L119.072 58.794C119.728 58.1435 120.384 59.0518 121.041 58.9248C122.745 58.5322 124.846 58.5322 126.551 58.2743C126.679 57.6238 127.336 57.7508 127.728 58.0125C128.256 59.3136 127.992 60.8726 128.12 62.3006L128.384 62.5624C128.12 63.6016 127.86 64.5101 127.6 65.5534C126.023 65.9421 124.974 65.0336 123.534 65.4224L119.204 65.5534C119.336 65.0336 118.68 65.0336 118.68 64.7719H118.944ZM120.516 60.095C119.86 60.222 120.12 61.0035 120.256 61.3923C119.86 61.781 119.86 62.5624 119.992 62.9551C120.12 63.4746 120.78 63.8634 121.173 63.6017C121.305 62.8241 121.305 61.781 121.565 61.1343C121.565 60.4838 120.908 60.4838 120.516 60.095ZM124.71 63.6017C124.974 62.5624 124.582 61.654 124.71 60.6147C124.846 59.7023 123.926 60.353 123.662 60.4838C123.534 61.3923 123.402 62.4316 123.662 63.2129C124.054 63.3438 124.318 63.9944 124.71 63.6017Z" fill="white"/>
<path d="M116.058 71.4044C116.19 72.0549 116.322 72.8324 115.926 73.6139C114.746 74.6532 113.569 73.3522 112.385 73.483C111.204 72.7054 109.763 73.6139 108.847 72.7054C107.794 72.9634 107.138 71.9241 106.09 72.3129C105.565 71.0156 103.993 72.0549 103.468 71.0156C102.288 71.0156 102.156 69.5836 101.5 68.9331C102.156 68.5406 102.548 67.6321 103.6 68.0248C104.121 68.4135 104.781 68.1518 105.301 68.2826C106.222 68.8023 107.27 68.4136 108.059 69.1911C108.715 69.1911 109.763 68.9331 109.891 69.4528C111.076 69.4528 112.385 69.3219 113.305 70.2343C114.221 70.2343 115.27 70.6231 116.058 71.4044Z" fill="white"/>
<path d="M115.926 39.5514C115.662 39.0317 116.45 37.7306 115.27 37.8616C114.746 38.2504 115.138 39.4244 114.089 39.2934C113.957 39.6824 113.957 39.8132 114.089 40.0749C114.485 39.4244 115.662 40.0749 115.926 39.5514ZM112.649 40.0749C112.909 40.0749 112.909 39.6824 112.909 39.5514C112.385 39.0317 112.649 38.2504 112.649 37.4728C111.86 37.2111 111.076 37.0801 110.155 37.0801V36.4335H115.926C116.975 37.0801 116.715 38.7739 116.583 39.9402L116.058 40.4637C114.932 40.4637 113.748 40.5752 112.621 40.5021L112.649 40.0749Z" fill="white"/>
<path d="M121.433 32.6614C121.433 31.8801 121.565 31.1024 121.305 30.4519C121.697 29.9284 121.173 29.4126 120.78 29.1548C120.909 29.8014 120.384 30.3211 120.12 30.8406C120.648 31.3641 120.12 32.1418 120.516 32.6614C120.909 32.6614 121.173 32.9231 121.433 32.6614ZM116.715 18.8811C116.583 18.3613 115.926 18.3614 115.662 18.6231C115.402 19.1428 115.662 19.7933 116.058 19.9241C116.583 19.9241 116.715 19.4006 116.715 18.8811ZM118.287 27.2031C118.287 28.2425 117.763 29.5435 118.023 30.8406C118.287 30.9716 118.812 30.8406 118.944 31.2333L119.86 29.6743C120.12 28.3733 119.728 27.0723 118.944 26.1638C118.547 26.4217 118.548 26.8105 118.287 27.2031ZM112.777 32.3996C111.989 31.6221 113.041 30.0631 112.385 29.1548C112.909 28.5003 112.124 27.8537 111.6 27.592C111.076 27.8537 110.68 28.1115 110.288 28.5003L109.686 28.3618C110.004 27.5187 110.583 26.7951 111.6 26.2908C112.257 26.1638 111.6 25.1245 112.124 24.601C112.777 24.0814 112.517 22.9112 113.305 22.2607C113.697 21.0904 114.221 19.9241 114.221 18.6231C114.878 18.1034 115.794 16.6715 116.715 17.3221C117.499 16.6715 118.023 17.7108 118.287 18.2304C118.287 19.1428 118.415 20.3129 118.547 21.3522C119.468 22.1297 118.415 23.8235 119.86 24.474C120.384 26.033 121.041 27.461 122.221 28.6313L122.745 29.0238L122.353 32.9231C122.353 33.1425 122.543 33.6468 122.924 33.7084L122.893 34.0625C121.716 33.9624 120.594 33.8316 119.6 33.9624C119.204 33.3119 119.336 32.3996 118.944 31.7529C118.155 32.1418 118.944 33.3119 117.895 33.8316C116.058 34.3512 113.569 33.9624 111.6 34.2242L111.336 33.8778C111.418 33.8778 111.503 33.8624 111.6 33.8316C112.257 33.5699 112.649 33.1811 112.777 32.3996ZM113.173 25.1245C113.433 26.1638 111.728 26.4217 112.517 27.592C114.746 28.5003 112.517 31.8801 114.878 32.9231C115.402 33.7007 115.926 32.3996 116.451 33.1811C116.975 33.3119 117.499 32.9231 117.631 32.5344C117.107 31.3641 117.239 29.8014 117.107 28.5003C116.975 27.7228 116.322 27.2031 116.451 26.2908C115.926 24.859 114.221 24.859 113.173 25.1245Z" fill="white"/>
<path d="M108.583 64.7719C108.975 64.7719 109.631 64.9027 110.027 64.3831V61.9119L110.68 60.3528C110.68 59.9025 110.307 59.8256 109.946 59.8178L109.977 58.7401C110.54 58.844 111.088 59.1134 111.728 58.7938C112.649 58.0125 113.697 59.3136 114.746 58.663C115.794 59.1828 117.107 57.362 117.895 58.9248C117.631 60.222 117.499 61.7809 117.895 63.0821V65.4224C115.662 66.0729 113.305 65.2915 111.204 65.8112C110.365 65.8728 109.445 65.7957 108.54 65.7573L108.583 64.7719Z" fill="white"/>
<path d="M106.354 66.5926H115.662C115.794 66.8544 115.794 67.374 116.19 67.5011L115.926 69.7144C116.058 69.8414 116.19 69.8414 116.322 69.9722C113.957 69.0639 111.86 68.6751 109.499 67.8937C108.319 67.7629 107.01 68.0246 105.958 67.1124L106.354 66.5926Z" fill="white"/>
<path d="M107.53 34.7439C106.746 34.8709 105.829 35.0017 105.041 34.7439C104.517 34.3512 104.385 33.8315 104.909 33.3119C104.649 32.7922 104.649 32.3996 104.649 31.7529C105.041 31.6221 105.301 31.3641 105.169 30.9716C104.385 30.5828 105.169 29.8014 104.649 29.2816C105.565 27.8536 105.433 26.033 105.829 24.343C106.746 24.7318 105.697 26.4218 106.746 26.8105C106.09 27.7228 106.746 28.7621 107.01 29.5434C106.878 30.1939 106.878 31.1024 105.829 30.9716C105.565 31.6221 105.958 32.3996 105.958 33.181C106.222 34.0932 107.402 33.8315 108.187 33.8315C108.451 33.181 108.975 32.7922 109.367 32.1417C109.293 30.8099 109.262 29.478 109.686 28.3618L110.288 28.5003C110.027 29.9284 110.155 31.1024 110.155 32.6614C110.501 33.1195 110.746 33.8778 111.336 33.8778L111.6 34.2242C110.42 34.8709 108.715 34.2242 107.53 34.7439Z" fill="white"/>
<path d="M105.433 56.4538C105.565 56.5846 105.829 56.4538 105.958 56.3229C106.222 55.9341 106.09 55.2836 105.697 55.0218C106.222 55.0218 106.09 54.3713 106.09 53.9825C106.222 53.5938 106.222 52.9433 105.565 52.9433C105.169 53.4628 105.433 54.1135 105.301 54.764C106.09 55.2836 104.909 55.6723 105.433 56.4538ZM104.517 53.8517L104.781 51.6422C105.829 52.1618 107.138 50.7337 108.059 51.904C109.107 52.5545 109.631 50.472 110.42 51.904C111.076 52.1618 111.86 52.031 112.257 51.3805C114.089 52.1618 115.662 50.9917 117.499 51.3805L117.763 52.031C117.239 53.2011 117.239 54.891 117.631 56.0611C117.239 56.7116 116.322 56.8426 115.534 56.8426C112.777 56.7116 109.763 56.7116 107.138 57.2314C106.354 57.2314 105.041 57.1004 104.517 56.4538C104.781 55.5415 104.781 54.6331 104.517 53.8517Z" fill="white"/>
<path d="M105.301 62.0428C106.222 62.6933 104.781 63.213 105.433 63.9944H105.829C106.486 63.4748 105.83 62.8243 105.958 62.4316C106.09 61.7811 106.354 60.6148 105.697 60.2221C105.041 60.4838 105.433 61.3923 105.301 62.0428ZM104.121 61.2615C105.301 60.2221 102.812 58.4014 105.041 58.2744C106.222 58.5322 107.53 58.794 108.847 58.925C109.251 58.6747 109.62 58.6747 109.977 58.7401L109.946 59.818C109.783 59.818 109.624 59.8295 109.499 59.8295C108.715 60.353 108.583 61.1343 108.187 62.0428C108.187 62.3008 108.715 62.5625 108.319 62.8243C108.059 63.4748 108.187 64.2523 108.583 64.7719L108.54 65.7574C107.468 65.7111 106.42 65.7188 105.565 66.0731C105.697 66.5926 106.09 66.2039 106.354 66.5926L105.958 67.1124L101.764 66.9814C96.5172 66.8544 91.5348 66.9814 86.4165 67.1124C84.9758 67.1124 84.3196 67.8937 82.8788 67.6319C82.3545 68.1516 81.4341 67.8937 80.778 68.1516C79.9935 67.7629 78.8129 68.5404 78.4208 68.6751C77.5004 68.2824 76.844 69.0639 76.0596 69.1909C74.8791 69.4527 74.0907 69.7144 72.9102 69.9724C72.518 70.8847 71.0734 69.8414 70.421 71.1425C69.8928 71.2734 69.6327 70.8847 69.5006 70.6229C69.5006 68.933 69.2366 67.1124 69.6327 65.6843L69.5006 65.1646H103.993C104.385 64.7719 104.121 63.9944 104.253 63.4748C105.041 62.8243 104.121 62.0428 104.121 61.2615Z" fill="white"/>
<path d="M105.958 44.7516C105.958 44.6208 105.697 44.2321 105.433 44.3629C105.301 44.4938 104.909 44.8826 105.301 45.0134C105.565 45.1443 105.958 45.1443 105.958 44.7516ZM105.829 49.5632C106.354 48.3931 106.222 47.3499 105.565 46.4416L105.301 47.0921C105.958 47.6117 105.169 48.2622 105.041 48.6509C105.169 49.0436 105.301 49.8212 105.829 49.5632ZM104.649 48.9127C104.517 47.3499 104.649 45.7911 104.517 44.1011C104.909 43.5815 105.433 43.0618 106.222 43.4506L106.878 43.7123H111.076C112.649 43.0618 114.614 43.9741 115.926 42.804L117.631 43.1928C116.975 45.4023 118.155 47.3499 117.239 49.5632C116.843 49.6942 116.322 49.5634 116.058 49.9521C115.27 49.5634 114.221 49.5634 113.433 49.9521C112.257 49.0436 111.076 50.7334 110.027 49.6942C108.583 50.0829 107.01 50.0829 105.301 50.0829C104.781 49.9521 105.041 49.3016 104.649 48.9127Z" fill="white"/>
<path d="M108.583 39.9403C109.367 39.6824 108.583 39.0318 108.715 38.5123C108.715 37.9926 108.059 37.8616 107.53 37.7308C107.27 37.9926 106.878 38.2505 107.01 38.774C107.402 39.1628 107.794 39.9403 108.583 39.9403ZM99.7985 37.6038C99.1384 37.6038 99.2704 36.5606 98.618 36.8223C98.222 36.8223 98.354 37.342 98.4821 37.342C99.7985 37.342 98.618 38.2505 99.0103 38.901C99.2704 39.1628 99.6627 38.901 99.9268 38.6431C100.059 38.3813 99.9268 37.8618 99.7985 37.6038ZM103.732 39.0318C104.121 39.0318 104.517 38.6431 104.517 38.1234C104.649 36.8223 103.204 37.7308 102.548 37.2111C102.156 37.342 102.548 37.7308 102.42 38.1234C102.68 38.6431 103.072 39.2936 103.732 39.0318ZM105.433 39.0318C105.041 38.5123 104.649 38.901 104.253 39.1628C103.864 39.5516 104.385 39.9403 104.649 40.2021H95.9928V39.6824C96.257 39.5516 96.7774 39.5516 96.5172 39.1628C96.6492 38.774 96.257 38.6431 95.9928 38.6431L95.4687 37.8616C95.7288 37.7308 95.9928 37.7308 95.8608 37.342C95.6084 36.9224 95.0803 36.5029 94.5988 36.5029L94.5755 35.7985C95.158 35.7985 95.6279 35.1864 95.9928 35.783C96.6492 35.6522 97.4336 35.914 97.9617 35.5213C99.0103 36.3028 100.451 34.8708 101.371 36.041C103.468 36.1718 105.565 35.6522 107.402 36.4336H110.155V37.0803C109.239 37.6038 110.68 37.8618 110.42 38.5123C110.287 40.0751 112.256 39.0318 112.649 40.0751L112.621 40.5023C112.043 40.4676 111.476 40.3791 110.944 40.2021C109.239 40.0751 107.53 40.9834 105.829 40.2021C105.565 40.2021 105.169 40.4638 105.169 40.0751C105.433 39.8133 105.565 39.4245 105.433 39.0318Z" fill="white"/>
<path d="M86.9407 36.3026C86.6806 36.0408 86.2883 36.4334 85.8962 36.4334C85.3679 37.8614 87.597 37.0801 87.0727 38.5121C87.469 39.0317 87.9931 38.6429 88.3854 38.3812C88.2534 38.1232 88.5174 37.6036 88.1251 37.6036C87.469 37.6036 87.0727 36.8222 86.9407 36.3026ZM72.2539 36.8222C72.7781 36.1716 71.7296 35.3941 71.2053 36.1716C70.9452 36.5604 71.3375 37.0801 71.7296 37.3419L72.2539 36.8222ZM73.5664 38.6429C73.8267 38.9009 74.3548 38.7739 74.3548 38.5121C74.4829 37.9924 73.8267 37.9924 73.5664 37.8614C73.1703 37.9924 73.3024 38.6429 73.5664 38.6429ZM75.9276 36.5604C75.9276 35.9138 74.879 35.7829 74.879 36.5604C74.879 36.9492 75.2712 37.0801 75.5353 37.2109C75.7955 37.0801 75.9276 36.8222 75.9276 36.5604ZM75.9276 39.0317C76.4517 38.7739 77.1081 38.7739 77.3682 38.1232C77.1081 37.0801 76.3197 38.3812 75.7956 38.3812C75.6673 38.6429 75.6673 38.9009 75.9276 39.0317ZM79.8614 38.9009C80.2574 39.0317 80.7778 39.2934 81.0419 38.9009C81.3061 37.9924 79.9934 36.8222 79.205 37.4727C78.8129 38.1232 79.5973 38.3812 79.8614 38.9009ZM83.1389 39.8132L72.2539 39.6822C70.9452 39.0317 68.0599 40.3327 68.0599 37.8614C68.32 36.9492 67.6676 35.7829 68.452 35.0016C70.8132 35.1324 73.3024 34.6128 75.6673 35.2633C76.3197 34.7436 77.1081 35.5211 77.7644 35.0016C79.7293 35.5211 82.0905 34.8706 83.9273 35.5211C87.3368 35.6521 91.1387 35.2633 94.4201 35.7829C94.4745 35.7945 94.5249 35.7983 94.5755 35.7983L94.5987 36.5027C94.3346 36.5027 94.0823 36.626 93.8959 36.9492C93.7639 37.9924 95.0764 37.3419 95.4685 37.8614L95.9928 38.6429C95.7288 38.9009 95.5968 39.4244 95.9928 39.6822V40.2019H89.962C88.9096 39.2934 87.8611 40.8524 86.8126 39.9402C85.6321 40.3327 84.3194 40.0749 83.1389 39.8132ZM92.4512 38.6429L92.5832 38.2504C92.4512 37.7306 91.5348 37.0801 91.2707 37.8614C91.5348 38.3812 91.927 38.9009 92.4512 38.6429ZM84.0593 37.9924C84.4515 37.2109 83.403 37.2109 83.0107 37.6036C82.8787 37.8616 83.0107 38.1232 83.271 38.2504C83.535 38.3812 83.9273 38.2504 84.0593 37.9924Z" fill="white"/>
<path d="M67.7958 67.8938V74.6532C65.5667 73.483 64.9105 71.0156 62.4173 70.4921L55.206 76.8627C54.9419 73.7447 55.0739 71.0156 55.0739 67.8938C59.1397 67.763 63.5978 67.763 67.7958 67.8938Z" fill="white"/>
<path d="M62.5494 72.8323L67.0114 76.9934C64.2542 78.1635 61.3689 76.9934 58.3553 77.3821H58.0913L62.5494 72.8323Z" fill="white"/>
<path d="M63.2057 38.5121C63.5978 38.2504 64.2542 38.2504 64.1221 37.7308C63.4658 36.9493 64.2542 36.3026 64.1221 35.3943C64.1221 34.3511 62.4173 33.8315 62.2891 35.2633C62.9454 36.0409 62.4173 36.9493 62.4173 37.9926C62.6814 38.2504 62.8095 38.5121 63.2057 38.5121ZM61.1086 38.2504C62.0251 38.2504 61.7649 37.2111 62.1571 36.5606C62.025 35.783 62.4173 34.482 61.3689 34.224C59.5358 34.7438 60.9766 36.4336 60.4523 37.6038C60.3202 37.9926 60.7163 38.2504 61.1086 38.2504ZM65.5667 39.1626H59.1397C58.6154 39.0318 59.2718 38.6431 59.1397 38.2504L59.0543 36.6761L58.8757 33.3118C59.9281 32.923 61.1086 33.8315 62.1571 33.181C63.5047 34.0778 64.5688 32.8614 65.7531 32.7421C65.9473 32.7266 66.1453 32.7421 66.3511 32.7922V33.05C65.1746 33.05 65.8307 34.224 65.5667 34.7438C65.6987 36.4336 65.4386 37.6038 65.5667 39.1626Z" fill="white"/>
<path d="M62.9454 42.1497C62.1571 43.062 62.2891 44.7518 62.6814 45.922C62.9454 46.1838 63.3377 46.1838 63.5978 45.7911C64.1222 44.7518 63.3377 44.1012 63.8619 43.062C63.8619 42.5422 63.3377 42.2805 62.9454 42.1497ZM59.5358 43.7125C59.6641 44.6208 59.1398 46.0528 60.4523 46.1838C62.1571 45.7911 60.5843 44.232 61.2368 43.1928C61.1086 42.6732 60.7165 41.8917 60.0601 42.1497C59.2718 42.4114 60.0601 43.1928 59.5358 43.7125ZM58.6154 43.8433C59.5358 43.062 58.3553 42.0227 58.7475 41.2412C59.4038 41.3722 60.5843 41.503 61.2368 40.9834C62.0251 41.503 63.0735 41.3722 63.9939 40.9834L64.6463 40.3327C65.959 41.503 64.9104 43.5815 65.4386 45.1443C65.8307 45.5332 65.3066 46.3146 65.959 46.5725L65.8307 47.0921C64.1221 47.0921 62.0251 47.7426 60.3202 47.223C59.6641 47.223 58.6154 47.6118 58.6154 46.7033C59.7961 45.922 58.3553 45.0135 58.6154 43.8433Z" fill="white"/>
<path d="M66.6152 55.0218C67.0114 53.7247 66.3511 51.773 66.8794 50.3412C66.6152 49.9524 66.6152 49.3019 65.959 49.1749C65.5667 49.3019 65.6987 49.8215 65.6987 50.2142C66.091 51.3805 65.5667 52.6815 65.3066 53.7247C65.8308 54.1135 65.5667 54.764 65.6987 55.1528C65.959 55.5416 66.3511 55.4145 66.6152 55.0218ZM63.8619 50.8608C63.8619 50.3412 62.9454 49.8215 62.5494 50.3412C62.4173 51.6422 62.1571 53.0742 62.8095 54.2443C63.9939 54.2443 63.8619 52.9433 64.1221 52.1618C64.1221 51.6422 63.4658 51.3805 63.8619 50.8608ZM60.8446 49.0439C61.893 49.3019 63.0737 49.4327 64.2542 49.0439C65.3066 49.4327 65.6987 48.3934 66.7472 48.7822L67.4035 50.2142C67.0114 52.1618 67.2715 53.8518 67.1395 55.8033C66.8794 56.1921 66.3511 56.1921 65.8307 56.4538C65.3066 55.8033 64.9105 56.7118 64.3862 56.5846C62.8095 55.8033 61.2368 56.9735 59.6641 56.1921L58.7475 56.0611C58.6154 54.6331 59.1397 53.0742 58.6154 51.5113C59.0117 50.8608 58.7475 49.9524 58.6154 49.3019C59.2718 49.3019 60.3202 49.5637 60.8446 49.0439ZM60.5843 54.5023C61.893 53.8518 61.1086 52.031 61.2368 50.8608C61.2368 50.472 60.8446 50.0832 60.4523 50.0832C59.6641 50.2142 59.6641 50.9917 59.2718 51.5113C59.2718 52.2928 59.2718 53.0742 59.5358 53.7247C59.6641 54.1135 60.0601 54.764 60.5843 54.5023Z" fill="white"/>
<path d="M59.4039 59.4447C59.9281 60.3531 59.0117 61.1345 59.2718 62.1739C59.2718 62.5627 60.1922 62.6935 59.4039 62.9552C59.2718 63.4749 59.2718 64.2525 59.6641 64.645C60.0601 64.772 60.8446 64.903 60.9766 64.3833C60.8446 63.7328 61.3689 63.0822 61.2368 62.3009C61.3689 61.7812 60.4524 61.5232 61.1086 61.1345C61.2368 60.2222 61.3689 58.7941 60.1922 58.6633L59.4039 59.4447ZM58.2233 66.5928C58.3553 63.8637 58.0913 60.3531 58.4836 57.7511C60.4524 57.3623 62.6814 57.8819 64.1221 57.2314L65.5668 57.3623L65.6989 65.9423C65.959 66.0731 66.6153 66.204 66.6153 65.6843L66.7473 58.2746C66.6153 57.8819 65.959 57.3622 66.7473 57.2314L67.4037 57.6239C67.5318 60.3531 67.1395 63.2132 67.5318 65.9423C67.4037 66.3348 67.0114 66.5928 66.6153 66.7237L58.2233 66.5928ZM63.862 63.8637C63.73 62.5627 64.1221 61.3924 63.9941 60.0952C63.862 59.5717 63.4658 59.1829 62.9454 59.0521C62.0252 59.7026 62.8096 61.0037 62.4173 61.9121C62.6814 62.8244 62.1572 64.2525 63.2057 64.645C63.862 65.0338 63.598 64.1255 63.862 63.8637Z" fill="white"/>
<path d="M58.7458 36.6915H58.6154V36.9493H58.7458V36.6915Z" fill="white"/>
<path d="M57.6875 36.9725C57.699 37.3652 57.699 37.7578 57.699 38.1235C57.4349 38.2505 57.1709 38.3813 56.9108 38.2505C56.5185 37.7308 57.4349 37.8618 57.3029 37.342C57.3029 36.8223 57.3029 35.914 56.7788 35.6522C56.9108 35.1325 57.4349 35.3943 57.567 35.6522C57.6369 36.0679 57.6718 36.5221 57.6875 36.9725Z" fill="white"/>
<path d="M56.7788 65.1644C56.2544 65.811 57.0428 66.0728 56.6505 66.5925L48.1538 66.6117V65.8187C48.4799 65.8187 48.7907 65.6725 49.0431 65.4222L49.1751 60.4836C49.4352 60.2219 49.6994 59.9641 49.6994 59.5714C49.5674 59.3136 49.1751 59.1826 48.779 59.1826L48.7907 58.2549C50.379 58.2743 52.0061 58.2743 53.6332 58.2743C54.2895 57.231 54.9419 58.0125 55.8623 58.0125H56.6505C56.6505 59.0518 55.7303 59.9641 56.3865 60.8724C56.3865 62.3006 55.9943 63.8634 56.7788 65.1644Z" fill="white"/>
<path d="M48.9109 46.9614C49.6993 46.4419 50.7477 45.6642 51.14 44.6211C52.7166 43.4509 53.5012 41.507 54.5496 39.8172L55.3768 40.3021C55.0661 40.8296 54.9108 41.3376 55.7301 41.6341H56.3865C56.5185 42.4116 56.2544 43.3239 56.5185 44.1014C56.6505 44.7519 57.3029 45.5334 56.3865 46.053C56.5185 46.4419 56.6505 46.8306 56.3865 47.2232C54.6817 47.612 52.8448 47.0924 51.008 47.3502C50.4371 47.5119 49.8624 47.6774 49.3537 47.9353L48.9109 46.9614Z" fill="white"/>
<path d="M61.1086 29.9282C61.3689 30.9714 62.4173 30.4517 62.9454 30.8405C64.1221 30.4517 63.0737 29.4124 63.5978 28.5002L63.3377 26.5524C63.2057 26.0328 62.6814 25.5131 62.0251 25.5131C60.8446 26.4216 61.893 28.6311 61.1086 29.9282ZM57.699 30.5827V30.3209C57.699 29.6742 56.9108 30.063 56.5185 29.8012C55.7301 29.2816 56.5185 28.1114 56.1224 27.3299C55.9942 25.7711 55.8622 23.6925 54.8137 22.3913L52.8448 22.1296C50.876 23.5616 54.0253 24.2121 53.7613 25.6441C54.4215 27.4609 52.8448 29.1546 54.6817 30.4517L57.699 30.5827ZM58.7476 25.9019C58.6156 24.4738 58.6156 23.1728 57.831 21.8718C57.567 21.6138 57.0428 21.7408 56.7788 22.1296C56.6505 23.8233 56.6505 25.7711 57.0428 27.4609C57.9632 27.7226 58.4836 26.2906 58.8757 26.0328L59.0117 30.4517L59.5358 30.5827C59.9281 30.5827 60.0601 30.063 60.0601 29.6742C61.2368 28.5002 60.4524 26.5524 60.7165 25.1243C60.8446 24.8588 60.4524 24.8588 60.3204 24.7318C59.7961 24.8588 59.2718 25.3823 59.2718 25.9019C59.1748 25.9982 59.0077 26.0944 58.8757 26.0328C58.8252 26.0136 58.7825 25.9712 58.7476 25.9019ZM50.7479 23.9503C50.6159 22.911 51.272 21.8718 52.3207 21.352C51.9284 20.8325 52.7167 20.7015 52.7167 20.3128C52.3207 19.0117 53.7613 18.492 53.3729 17.191C54.5496 16.2826 53.2409 14.204 54.8137 13.6805C55.0739 13.6805 55.206 13.2917 55.338 13.0299C56.1224 13.6805 57.699 12.3794 57.831 14.0731C58.0913 14.8506 57.831 15.1124 57.831 15.8899C58.7476 17.7107 58.7476 19.7932 59.7961 21.6138C59.7961 22.6531 61.3689 23.3036 60.9766 24.4738C61.3689 25.2514 61.7649 24.343 62.1571 24.343C63.4658 25.1243 64.5182 26.5524 64.3862 27.9806C64.1221 28.6311 64.3862 29.5434 65.0425 29.9282C65.4386 30.063 65.8307 29.8012 65.8307 29.4124C65.8307 28.2424 66.091 26.5524 64.5182 26.1636L65.1746 23.8233C64.9105 22.911 65.4386 21.7408 64.9105 20.9633L65.8307 19.924C65.959 22.1296 66.091 24.0813 66.8794 25.9019L66.3511 26.9412C67.9278 27.9806 66.223 29.2816 67.0114 30.4517L65.959 31.8799C65.8541 31.9029 65.7532 31.9184 65.6521 31.9299C63.9435 32.134 62.4407 31.0138 60.5844 31.7528C59.0117 31.364 57.3029 31.7528 55.7301 32.0107L54.6817 31.622L52.1458 32.1417L51.9284 31.1022C53.2409 30.1939 52.3207 28.2424 52.5808 26.8104C52.1885 26.2907 52.0604 25.6441 52.1885 24.9936C51.7536 24.8818 50.8605 24.774 50.7245 25.2706L50.0876 24.4584L50.7479 23.9503Z" fill="white"/>
<path d="M44.1889 24.732L44.453 20.0512C44.717 19.9241 45.3694 19.7933 45.6335 19.7933C45.2412 20.4439 45.1091 21.4831 45.6335 22.1297C45.7615 23.6927 46.1578 25.5133 46.2858 27.2031C45.6335 28.1116 46.0257 29.6743 45.8937 30.8406C46.4179 31.4913 47.3383 31.2333 48.1266 31.2333C49.5672 30.8406 49.0431 29.4126 49.4352 28.5003L49.5672 24.859L50.0877 24.4585L50.7245 25.2707C50.7013 25.367 50.7051 25.4903 50.7479 25.6442C50.876 26.8105 50.7479 27.592 50.4838 28.7621C51.4041 29.4126 49.9595 29.8014 50.4838 30.7136C50.876 30.9716 51.4041 31.2333 51.9284 31.1024L52.1458 32.1418L50.876 32.3996C50.0915 32.2726 49.1751 32.1418 48.5188 32.6614L46.1267 32.7345L44.3209 32.7923C43.4043 31.8801 43.5365 30.5828 43.1403 29.5435C43.5365 28.6313 43.5365 27.461 44.0607 26.6835L44.1889 24.732Z" fill="white"/>
<path d="M44.8451 64.2525C44.9771 64.5103 45.2412 64.5103 45.3694 64.3833C45.5014 63.7327 46.1576 63.6019 46.0256 62.9552C45.3694 61.6542 46.0256 60.8727 45.8936 59.5717C45.7615 59.0521 45.3694 58.9251 44.717 58.9251V60.3531C43.9286 61.6542 44.8451 62.9552 44.8451 64.2525ZM26.5312 60.8112L26.7564 61.2615C26.667 61.3039 26.5739 61.35 26.4846 61.3924C24.5196 62.9552 22.0264 62.9552 20.0615 64.645C21.242 65.0338 22.5507 64.903 23.8632 64.772L24.2555 64.5103C24.9118 64.5103 25.436 64.2525 25.9603 64.1255C27.0127 63.9945 27.7972 62.9552 28.9777 63.0822L28.8456 62.8244C29.2379 62.4317 29.3699 62.6935 29.766 62.8244L32.3873 61.3924C32.6513 60.4839 33.6998 60.6149 34.3522 60.0952C34.461 59.9874 34.6513 59.9028 34.8339 59.795L35.3037 60.4609C32.7407 62.2662 30.0612 63.8867 27.0127 64.772L26.8768 65.0338L43.7966 65.1647C44.3208 64.1255 43.9286 62.8244 43.6646 61.9121C44.1888 60.6149 42.8802 58.9251 44.3208 58.0128C44.1888 58.0128 44.1888 57.8819 44.1888 57.7511H44.585L44.453 58.1436C45.847 58.2052 47.3032 58.2399 48.7906 58.2552L48.779 59.1829C48.3867 59.8296 47.4663 60.3531 47.4663 61.2615C47.0742 62.5627 47.8624 64.1254 47.5984 65.6843C47.7849 65.7768 47.9712 65.819 48.1498 65.819V66.612L2.74944 66.7237C2.6174 65.8115 3.53387 65.1647 4.32219 65.0338L5.50273 64.903C7.86382 64.1255 9.96472 62.8244 12.1899 62.0429C13.7665 60.7419 15.7315 60.4839 17.4363 59.1829C18.0383 59.1252 18.5509 58.9443 19.013 58.6864L19.2499 59.0289C16.9199 60.6418 14.1083 61.3039 11.9297 63.2132C11.0094 63.2132 10.3569 63.7327 9.56863 64.1255C9.56863 64.3833 9.30454 64.772 9.70065 64.903C11.3123 64.6759 12.9238 64.0446 14.2714 63.5441L14.4345 63.983C13.619 64.3064 12.8734 64.8529 12.0617 65.0338L11.9297 65.2918H15.5994C15.5994 64.903 15.9955 64.645 16.2558 64.3833C17.4363 64.3833 18.2246 63.6019 19.1411 63.2132C20.4538 63.7327 21.242 62.5627 22.4187 62.4317C22.6827 61.6542 23.8632 62.0429 24.2555 61.2615C24.9118 61.7812 25.436 60.8727 26.2244 61.1345C26.3215 61.0191 26.4264 60.9113 26.5312 60.8112Z" fill="white"/>
<path d="M45.2412 50.2139C44.9771 50.3409 44.5848 50.4718 44.8451 50.8606C44.9771 51.1224 45.1091 50.8606 45.3694 50.8606C45.5014 50.6026 45.5014 50.4718 45.2412 50.2139ZM45.2412 52.0309C43.9286 52.8122 44.5848 54.502 44.5848 55.6722C44.7169 56.1919 45.2412 56.061 45.5014 56.061C46.1576 55.934 45.8936 55.2834 46.0256 54.7637C45.5014 54.2442 46.1576 53.7244 45.8936 52.9431C46.0256 52.5544 45.8936 51.9038 45.2412 52.0309ZM35.6649 58.9248C36.057 58.663 37.1094 58.4013 36.7133 57.7508C37.7657 58.1435 37.8938 56.4537 38.8142 56.7115C39.8627 55.8032 41.1714 54.6329 42.3559 53.5936C43.5364 52.6814 44.3208 51.2533 44.0607 49.6943C44.7169 49.5634 45.7615 49.4326 46.2858 49.8213C46.814 49.5634 47.4663 49.0438 47.3383 48.2623C47.3072 48.2546 47.28 48.2469 47.2489 48.2354L47.2023 47.3001C47.6955 47.2962 48.3673 46.6918 48.9109 46.9613L49.3537 47.9352C49.0469 48.0891 48.7634 48.2778 48.5188 48.5241C48.1265 49.8213 49.5672 49.6943 50.3556 49.9521C52.1885 49.4326 54.1573 49.9521 55.8622 49.0438C56.5185 49.3016 56.9106 49.6943 56.9106 50.3409C55.7301 51.7729 56.7786 53.5936 56.7786 55.4142C56.6505 55.8032 56.2544 56.1919 55.7301 56.5845C53.8972 56.7115 52.1885 55.8032 50.2236 56.5845H44.3208C42.88 56.061 45.3694 53.2009 43.0083 54.2442C42.748 54.6329 41.8278 54.7637 41.9598 55.4142C41.4355 55.4142 41.1714 55.934 40.7791 56.1919C40.7791 56.9732 39.7307 56.8424 39.3385 57.362V57.8817H38.8142C37.6531 58.7478 36.4919 59.6216 35.3037 60.4608L34.8337 59.7948C35.1017 59.6409 35.3503 59.4406 35.2726 59.0518C35.4046 58.9248 35.5328 58.9248 35.6649 58.9248Z" fill="white"/>
<path d="M44.585 45.1446C44.717 45.5334 44.3209 46.1839 44.585 46.7035C44.9771 47.4812 45.2412 46.4417 45.7615 46.4417C45.8936 44.8829 45.8936 43.8436 45.7615 42.2806C45.5014 42.4116 44.8451 42.1499 44.717 42.5424C44.717 43.3239 44.1889 44.2324 44.585 45.1446ZM33.9601 56.7116C32.3873 58.0127 30.6825 59.4447 28.8456 60.0952C28.2632 60.5571 27.4788 60.9151 26.7564 61.2615L26.5312 60.8111C28.104 59.2753 30.4029 58.9289 32.1272 57.1004C32.7796 56.9734 32.6513 56.0611 33.5678 56.3229C33.5678 55.4144 34.4844 55.8032 34.8765 55.2836C36.8454 53.5938 39.0745 52.4236 40.9151 50.341C41.6995 49.8215 42.6161 49.4327 43.2723 48.5242C44.453 47.481 43.4043 46.1839 43.4043 44.8829C43.5364 44.4941 42.4841 44.3632 43.1403 44.1014L43.4043 42.9312C43.4043 41.1106 45.5014 41.5031 46.6819 41.5031C47.0742 42.4116 47.9946 41.3723 48.5188 41.7611C49.6489 42.0113 50.8916 41.9035 51.6875 41.0989L52.0953 41.176C50.4838 43.0776 47.8315 44.5556 46.6819 46.8305C46.8023 47.1885 46.9848 47.304 47.2023 47.3001L47.2489 48.2355C46.7557 48.0778 46.2547 47.6197 45.7615 47.7428C44.8451 48.0007 44.0607 48.7822 43.6646 49.5635C41.4355 50.6028 39.7307 53.332 37.5017 54.2443L36.3212 55.0218C35.7969 55.2836 35.7969 56.1919 35.1406 56.0611C35.2726 56.9734 34.3523 56.4537 33.9601 56.7116Z" fill="white"/>
<path d="M45.6335 34.8708C45.6335 34.0932 44.7169 34.613 44.4528 34.3512V38.6431C44.8451 38.6431 45.2412 39.2936 45.6335 38.901V34.8708ZM37.8938 45.0137C37.8938 44.3632 37.1094 44.6211 36.9774 45.0137L37.3735 45.2716C37.5017 45.4024 37.8938 45.2716 37.8938 45.0137ZM36.321 46.053C36.4531 46.1839 36.8454 46.1839 36.8454 45.9222C36.8454 45.6604 36.7133 45.4024 36.321 45.5334C36.189 45.5334 36.057 45.9222 36.321 46.053ZM29.2378 54.1133C28.0612 55.6724 26.0923 56.4537 24.9117 58.1436C24.1235 58.4014 23.4711 59.052 22.8148 59.4447H22.5507C20.4536 61.0035 17.9606 62.4317 15.5994 63.7328C15.1879 63.7328 14.8034 63.8328 14.4344 63.9828L14.2713 63.5441C14.4577 63.4748 14.6403 63.4054 14.815 63.344C15.2073 62.6935 15.9955 62.8243 16.2558 62.1738C17.7003 61.654 18.877 60.4839 20.1896 60.0952C23.4711 57.8819 26.4845 55.5414 29.3698 52.9431C31.5989 51.5113 33.0435 49.4327 35.1406 48.0007C35.4046 47.612 34.8765 47.481 34.6162 47.2232L31.5989 50.0832C30.5504 50.472 29.634 51.5113 28.8456 52.4235C27.7972 53.5938 26.2244 53.7246 25.568 55.0218C24.5196 55.4144 23.5992 56.3229 22.6827 56.8424C21.6343 57.8819 20.4536 58.0127 19.4051 58.9249C19.3546 58.9634 19.3003 58.9981 19.2497 59.0289L19.013 58.6864C20.6595 57.7702 21.6264 55.8917 23.4711 55.2836C24.1235 54.6331 25.0437 53.8516 25.8321 53.5938C26.8768 52.5544 28.3213 51.3803 29.502 50.472C30.8145 50.341 31.3388 48.7822 32.6513 48.2625C32.5193 46.8305 34.0921 46.9614 34.7483 46.053C35.9289 44.1014 38.4219 43.4509 39.3385 41.2414C40.9151 40.2021 41.8278 38.3813 43.2723 37.473H43.6646L43.7966 33.8315C44.5382 33.7084 45.3343 33.6506 46.1538 33.6236C47.9362 33.5659 49.8275 33.6583 51.5322 33.5697C52.4525 32.3996 53.7613 34.6129 54.8137 33.181L55.9942 33.7007V39.1628C55.9399 39.4977 55.6136 39.9057 55.3767 40.3021L54.5496 39.8171C53.8972 39.0318 53.2409 39.9403 52.7166 40.333C52.5342 40.6255 52.3283 40.9065 52.0953 41.176L51.6875 41.0989C51.7264 41.0605 51.7613 41.022 51.7964 40.9835C51.5321 40.333 52.3205 40.333 52.1885 39.8133C51.4041 39.1628 49.8313 39.4245 48.6508 39.5516L45.5014 39.8133C44.5848 39.2936 43.1403 39.9403 43.2723 38.5123L43.1403 39.4245C41.8278 41.1106 40.387 43.0621 38.9462 44.6211C38.0259 46.3147 35.7969 47.3502 35.4046 49.1747H35.1406C34.6162 49.4327 33.9601 49.9523 34.2241 50.6028L33.6998 50.472C33.0435 50.6028 32.7794 51.2533 33.0435 51.773C32.9114 51.773 32.6513 51.773 32.5193 51.6421C32.127 51.9038 31.3388 52.2926 31.863 52.9431C30.9465 52.8123 30.1582 53.7246 29.2378 54.1133Z" fill="white"/>
<path d="M53.4934 68.2824V76.8626C50.5459 77.1435 44.049 76.2658 41.6918 74.2643C41.6063 72.8901 40.6316 67.7629 42.6742 67.7629C46.1499 67.7629 50.7206 67.4934 53.4934 68.2824Z" fill="white"/>
</g>
</g>
<defs>
<clipPath id="clip0_82_538">
<rect width="173" height="109" fill="white"/>
</clipPath>
</defs>
</svg>
